<svg version="1.1" xmlns="http://www.w3.org/2000/svg" xmlns:xlink="http://www.w3.org/1999/xlink" width="560" height="794" viewBox="0 0 560 794"><defs/><g><rect fill="rgb(255,255,255)" stroke="none" x="0" y="0" width="560" height="794" transform="matrix(1 0 0 1 0 0)" fill-opacity="1"/><g><path fill="none" stroke="rgb(0,0,0)" paint-order="fill stroke markers" d=" M 35 37.42857142857143 L 125 37.42857142857143 L 125 127.42857142857143 L 35 127.42857142857143 L 35 37.42857142857143 Z" stroke-opacity="1" stroke-linecap="round" stroke-miterlimit="10" stroke-width="1.5" stroke-dasharray=""/><path fill="none" stroke="rgb(0,0,0)" paint-order="fill stroke markers" d=" M 48.5 50.92857142857143 L 111.5 50.92857142857143 L 111.5 113.92857142857143 L 48.5 113.92857142857143 L 48.5 50.92857142857143 Z" stroke-opacity="1" stroke-linecap="round" stroke-miterlimit="10" stroke-width="1.5" stroke-dasharray=""/><path fill="none" stroke="rgb(0,0,0)" paint-order="fill stroke markers" d=" M 62 64.42857142857143 L 98 64.42857142857143 L 98 100.42857142857143 L 62 100.42857142857143 L 62 64.42857142857143 Z" stroke-opacity="1" stroke-linecap="round" stroke-miterlimit="10" stroke-width="1.5" stroke-dasharray=""/><path fill="none" stroke="rgb(0,0,0)" paint-order="fill stroke markers" d=" M 75.5 77.92857142857143 L 84.5 77.92857142857143 L 84.5 86.92857142857143 L 75.5 86.92857142857143 L 75.5 77.92857142857143 Z" stroke-opacity="1" stroke-linecap="round" stroke-miterlimit="10" stroke-width="1.5" stroke-dasharray=""/></g><g><path fill="none" stroke="rgb(0,0,0)" paint-order="fill stroke markers" d=" M 35 142.28571428571428 L 125 142.28571428571428 L 125 232.28571428571428 L 35 232.28571428571428 L 35 142.28571428571428 Z" stroke-opacity="1" stroke-linecap="round" stroke-miterlimit="10" stroke-width="1.5" stroke-dasharray=""/><path fill="none" stroke="rgb(0,0,0)" paint-order="fill stroke markers" d=" M 41.75 149.03571428571428 L 118.25 149.03571428571428 L 118.25 225.53571428571428 L 41.75 225.53571428571428 L 41.75 149.03571428571428 Z" stroke-opacity="1" stroke-linecap="round" stroke-miterlimit="10" stroke-width="1.5" stroke-dasharray=""/><path fill="none" stroke="rgb(0,0,0)" paint-order="fill stroke markers" d=" M 48.5 155.78571428571428 L 111.5 155.78571428571428 L 111.5 218.78571428571428 L 48.5 218.78571428571428 L 48.5 155.78571428571428 Z" stroke-opacity="1" stroke-linecap="round" stroke-miterlimit="10" stroke-width="1.5" stroke-dasharray=""/><path fill="none" stroke="rgb(0,0,0)" paint-order="fill stroke markers" d=" M 55.25 162.53571428571428 L 104.75 162.53571428571428 L 104.75 212.03571428571428 L 55.25 212.03571428571428 L 55.25 162.53571428571428 Z" stroke-opacity="1" stroke-linecap="round" stroke-miterlimit="10" stroke-width="1.5" stroke-dasharray=""/><path fill="none" stroke="rgb(0,0,0)" paint-order="fill stroke markers" d=" M 62 169.28571428571428 L 98 169.28571428571428 L 98 205.28571428571428 L 62 205.28571428571428 L 62 169.28571428571428 Z" stroke-opacity="1" stroke-linecap="round" stroke-miterlimit="10" stroke-width="1.5" stroke-dasharray=""/><path fill="none" stroke="rgb(0,0,0)" paint-order="fill stroke markers" d=" M 68.75 176.03571428571428 L 91.25 176.03571428571428 L 91.25 198.53571428571428 L 68.75 198.53571428571428 L 68.75 176.03571428571428 Z" stroke-opacity="1" stroke-linecap="round" stroke-miterlimit="10" stroke-width="1.5" stroke-dasharray=""/><path fill="none" stroke="rgb(0,0,0)" paint-order="fill stroke markers" d=" M 75.5 182.78571428571428 L 84.5 182.78571428571428 L 84.5 191.78571428571428 L 75.5 191.78571428571428 L 75.5 182.78571428571428 Z" stroke-opacity="1" stroke-linecap="round" stroke-miterlimit="10" stroke-width="1.5" stroke-dasharray=""/></g><g><path fill="none" stroke="rgb(0,0,0)" paint-order="fill stroke markers" d=" M 35 247.14285714285717 L 125 247.14285714285717 L 125 337.14285714285717 L 35 337.14285714285717 L 35 247.14285714285717 Z" stroke-opacity="1" stroke-linecap="round" stroke-miterlimit="10" stroke-width="1.5" stroke-dasharray=""/><path fill="none" stroke="rgb(0,0,0)" paint-order="fill stroke markers" d=" M 48.5 260.64285714285717 L 111.5 260.64285714285717 L 111.5 323.64285714285717 L 48.5 323.64285714285717 L 48.5 260.64285714285717 Z" stroke-opacity="1" stroke-linecap="round" stroke-miterlimit="10" stroke-width="1.5" stroke-dasharray=""/><path fill="none" stroke="rgb(0,0,0)" paint-order="fill stroke markers" d=" M 62 274.14285714285717 L 98 274.14285714285717 L 98 310.14285714285717 L 62 310.14285714285717 L 62 274.14285714285717 Z" stroke-opacity="1" stroke-linecap="round" stroke-miterlimit="10" stroke-width="1.5" stroke-dasharray=""/><path fill="none" stroke="rgb(0,0,0)" paint-order="fill stroke markers" d=" M 75.5 287.64285714285717 L 84.5 287.64285714285717 L 84.5 296.64285714285717 L 75.5 296.64285714285717 L 75.5 287.64285714285717 Z" stroke-opacity="1" stroke-linecap="round" stroke-miterlimit="10" stroke-width="1.5" stroke-dasharray=""/></g><g><path fill="none" stroke="rgb(0,0,0)" paint-order="fill stroke markers" d=" M 35 352 L 125 352 L 125 442 L 35 442 L 35 352 Z" stroke-opacity="1" stroke-linecap="round" stroke-miterlimit="10" stroke-width="1.5" stroke-dasharray=""/><path fill="none" stroke="rgb(0,0,0)" paint-order="fill stroke markers" d=" M 48.5 365.5 L 111.5 365.5 L 111.5 428.5 L 48.5 428.5 L 48.5 365.5 Z" stroke-opacity="1" stroke-linecap="round" stroke-miterlimit="10" stroke-width="1.5" stroke-dasharray=""/><path fill="none" stroke="rgb(0,0,0)" paint-order="fill stroke markers" d=" M 62 379 L 98 379 L 98 415 L 62 415 L 62 379 Z" stroke-opacity="1" stroke-linecap="round" stroke-miterlimit="10" stroke-width="1.5" stroke-dasharray=""/><path fill="none" stroke="rgb(0,0,0)" paint-order="fill stroke markers" d=" M 75.5 392.5 L 84.5 392.5 L 84.5 401.5 L 75.5 401.5 L 75.5 392.5 Z" stroke-opacity="1" stroke-linecap="round" stroke-miterlimit="10" stroke-width="1.5" stroke-dasharray=""/></g><g><path fill="none" stroke="rgb(0,0,0)" paint-order="fill stroke markers" d=" M 35 456.8571428571429 L 125 456.8571428571429 L 125 546.8571428571429 L 35 546.8571428571429 L 35 456.8571428571429 Z" stroke-opacity="1" stroke-linecap="round" stroke-miterlimit="10" stroke-width="1.5" stroke-dasharray=""/><path fill="none" stroke="rgb(0,0,0)" paint-order="fill stroke markers" d=" M 41.75 463.6071428571429 L 118.25 463.6071428571429 L 118.25 540.1071428571429 L 41.75 540.1071428571429 L 41.75 463.6071428571429 Z" stroke-opacity="1" stroke-linecap="round" stroke-miterlimit="10" stroke-width="1.5" stroke-dasharray=""/><path fill="none" stroke="rgb(0,0,0)" paint-order="fill stroke markers" d=" M 48.5 470.3571428571429 L 111.5 470.3571428571429 L 111.5 533.3571428571429 L 48.5 533.3571428571429 L 48.5 470.3571428571429 Z" stroke-opacity="1" stroke-linecap="round" stroke-miterlimit="10" stroke-width="1.5" stroke-dasharray=""/><path fill="none" stroke="rgb(0,0,0)" paint-order="fill stroke markers" d=" M 55.25 477.1071428571429 L 104.75 477.1071428571429 L 104.75 526.6071428571429 L 55.25 526.6071428571429 L 55.25 477.1071428571429 Z" stroke-opacity="1" stroke-linecap="round" stroke-miterlimit="10" stroke-width="1.5" stroke-dasharray=""/><path fill="none" stroke="rgb(0,0,0)" paint-order="fill stroke markers" d=" M 62 483.8571428571429 L 98 483.8571428571429 L 98 519.8571428571429 L 62 519.8571428571429 L 62 483.8571428571429 Z" stroke-opacity="1" stroke-linecap="round" stroke-miterlimit="10" stroke-width="1.5" stroke-dasharray=""/><path fill="none" stroke="rgb(0,0,0)" paint-order="fill stroke markers" d=" M 68.75 490.6071428571429 L 91.25 490.6071428571429 L 91.25 513.1071428571429 L 68.75 513.1071428571429 L 68.75 490.6071428571429 Z" stroke-opacity="1" stroke-linecap="round" stroke-miterlimit="10" stroke-width="1.5" stroke-dasharray=""/><path fill="none" stroke="rgb(0,0,0)" paint-order="fill stroke markers" d=" M 75.5 497.3571428571429 L 84.5 497.3571428571429 L 84.5 506.3571428571429 L 75.5 506.3571428571429 L 75.5 497.3571428571429 Z" stroke-opacity="1" stroke-linecap="round" stroke-miterlimit="10" stroke-width="1.5" stroke-dasharray=""/></g><g><path fill="none" stroke="rgb(0,0,0)" paint-order="fill stroke markers" d=" M 35 561.7142857142858 L 125 561.7142857142858 L 125 651.7142857142858 L 35 651.7142857142858 L 35 561.7142857142858 Z" stroke-opacity="1" stroke-linecap="round" stroke-miterlimit="10" stroke-width="1.5" stroke-dasharray=""/><path fill="none" stroke="rgb(0,0,0)" paint-order="fill stroke markers" d=" M 55.25 581.9642857142858 L 104.75 581.9642857142858 L 104.75 631.4642857142858 L 55.25 631.4642857142858 L 55.25 581.9642857142858 Z" stroke-opacity="1" stroke-linecap="round" stroke-miterlimit="10" stroke-width="1.5" stroke-dasharray=""/><path fill="none" stroke="rgb(0,0,0)" paint-order="fill stroke markers" d=" M 75.5 602.2142857142858 L 84.5 602.2142857142858 L 84.5 611.2142857142858 L 75.5 611.2142857142858 L 75.5 602.2142857142858 Z" stroke-opacity="1" stroke-linecap="round" stroke-miterlimit="10" stroke-width="1.5" stroke-dasharray=""/></g><g><path fill="none" stroke="rgb(0,0,0)" paint-order="fill stroke markers" d=" M 35 666.5714285714286 L 125 666.5714285714286 L 125 756.5714285714286 L 35 756.5714285714286 L 35 666.5714285714286 Z" stroke-opacity="1" stroke-linecap="round" stroke-miterlimit="10" stroke-width="1.5" stroke-dasharray=""/><path fill="none" stroke="rgb(0,0,0)" paint-order="fill stroke markers" d=" M 43.1 674.6714285714286 L 116.9 674.6714285714286 L 116.9 748.4714285714285 L 43.1 748.4714285714285 L 43.1 674.6714285714286 Z" stroke-opacity="1" stroke-linecap="round" stroke-miterlimit="10" stroke-width="1.5" stroke-dasharray=""/><path fill="none" stroke="rgb(0,0,0)" paint-order="fill stroke markers" d=" M 51.2 682.7714285714286 L 108.8 682.7714285714286 L 108.8 740.3714285714285 L 51.2 740.3714285714285 L 51.2 682.7714285714286 Z" stroke-opacity="1" stroke-linecap="round" stroke-miterlimit="10" stroke-width="1.5" stroke-dasharray=""/><path fill="none" stroke="rgb(0,0,0)" paint-order="fill stroke markers" d=" M 59.3 690.8714285714285 L 100.7 690.8714285714285 L 100.7 732.2714285714286 L 59.3 732.2714285714286 L 59.3 690.8714285714285 Z" stroke-opacity="1" stroke-linecap="round" stroke-miterlimit="10" stroke-width="1.5" stroke-dasharray=""/><path fill="none" stroke="rgb(0,0,0)" paint-order="fill stroke markers" d=" M 67.4 698.9714285714285 L 92.6 698.9714285714285 L 92.6 724.1714285714286 L 67.4 724.1714285714286 L 67.4 698.9714285714285 Z" stroke-opacity="1" stroke-linecap="round" stroke-miterlimit="10" stroke-width="1.5" stroke-dasharray=""/><path fill="none" stroke="rgb(0,0,0)" paint-order="fill stroke markers" d=" M 75.5 707.0714285714286 L 84.5 707.0714285714286 L 84.5 716.0714285714286 L 75.5 716.0714285714286 L 75.5 707.0714285714286 Z" stroke-opacity="1" stroke-linecap="round" stroke-miterlimit="10" stroke-width="1.5" stroke-dasharray=""/></g><g><path fill="none" stroke="rgb(0,0,0)" paint-order="fill stroke markers" d=" M 135 37.42857142857143 L 225 37.42857142857143 L 225 127.42857142857143 L 135 127.42857142857143 L 135 37.42857142857143 Z" stroke-opacity="1" stroke-linecap="round" stroke-miterlimit="10" stroke-width="1.5" stroke-dasharray=""/><path fill="none" stroke="rgb(0,0,0)" paint-order="fill stroke markers" d=" M 141.75 44.17857142857143 L 218.25 44.17857142857143 L 218.25 120.67857142857143 L 141.75 120.67857142857143 L 141.75 44.17857142857143 Z" stroke-opacity="1" stroke-linecap="round" stroke-miterlimit="10" stroke-width="1.5" stroke-dasharray=""/><path fill="none" stroke="rgb(0,0,0)" paint-order="fill stroke markers" d=" M 148.5 50.92857142857143 L 211.5 50.92857142857143 L 211.5 113.92857142857143 L 148.5 113.92857142857143 L 148.5 50.92857142857143 Z" stroke-opacity="1" stroke-linecap="round" stroke-miterlimit="10" stroke-width="1.5" stroke-dasharray=""/><path fill="none" stroke="rgb(0,0,0)" paint-order="fill stroke markers" d=" M 155.25 57.67857142857143 L 204.75 57.67857142857143 L 204.75 107.17857142857143 L 155.25 107.17857142857143 L 155.25 57.67857142857143 Z" stroke-opacity="1" stroke-linecap="round" stroke-miterlimit="10" stroke-width="1.5" stroke-dasharray=""/><path fill="none" stroke="rgb(0,0,0)" paint-order="fill stroke markers" d=" M 162 64.42857142857143 L 198 64.42857142857143 L 198 100.42857142857143 L 162 100.42857142857143 L 162 64.42857142857143 Z" stroke-opacity="1" stroke-linecap="round" stroke-miterlimit="10" stroke-width="1.5" stroke-dasharray=""/><path fill="none" stroke="rgb(0,0,0)" paint-order="fill stroke markers" d=" M 168.75 71.17857142857143 L 191.25 71.17857142857143 L 191.25 93.67857142857143 L 168.75 93.67857142857143 L 168.75 71.17857142857143 Z" stroke-opacity="1" stroke-linecap="round" stroke-miterlimit="10" stroke-width="1.5" stroke-dasharray=""/><path fill="none" stroke="rgb(0,0,0)" paint-order="fill stroke markers" d=" M 175.5 77.92857142857143 L 184.5 77.92857142857143 L 184.5 86.92857142857143 L 175.5 86.92857142857143 L 175.5 77.92857142857143 Z" stroke-opacity="1" stroke-linecap="round" stroke-miterlimit="10" stroke-width="1.5" stroke-dasharray=""/></g><g><path fill="none" stroke="rgb(0,0,0)" paint-order="fill stroke markers" d=" M 135 142.28571428571428 L 225 142.28571428571428 L 225 232.28571428571428 L 135 232.28571428571428 L 135 142.28571428571428 Z" stroke-opacity="1" stroke-linecap="round" stroke-miterlimit="10" stroke-width="1.5" stroke-dasharray=""/><path fill="none" stroke="rgb(0,0,0)" paint-order="fill stroke markers" d=" M 148.5 155.78571428571428 L 211.5 155.78571428571428 L 211.5 218.78571428571428 L 148.5 218.78571428571428 L 148.5 155.78571428571428 Z" stroke-opacity="1" stroke-linecap="round" stroke-miterlimit="10" stroke-width="1.5" stroke-dasharray=""/><path fill="none" stroke="rgb(0,0,0)" paint-order="fill stroke markers" d=" M 162 169.28571428571428 L 198 169.28571428571428 L 198 205.28571428571428 L 162 205.28571428571428 L 162 169.28571428571428 Z" stroke-opacity="1" stroke-linecap="round" stroke-miterlimit="10" stroke-width="1.5" stroke-dasharray=""/><path fill="none" stroke="rgb(0,0,0)" paint-order="fill stroke markers" d=" M 175.5 182.78571428571428 L 184.5 182.78571428571428 L 184.5 191.78571428571428 L 175.5 191.78571428571428 L 175.5 182.78571428571428 Z" stroke-opacity="1" stroke-linecap="round" stroke-miterlimit="10" stroke-width="1.5" stroke-dasharray=""/></g><g><path fill="none" stroke="rgb(0,0,0)" paint-order="fill stroke markers" d=" M 135 247.14285714285717 L 225 247.14285714285717 L 225 337.14285714285717 L 135 337.14285714285717 L 135 247.14285714285717 Z" stroke-opacity="1" stroke-linecap="round" stroke-miterlimit="10" stroke-width="1.5" stroke-dasharray=""/><path fill="none" stroke="rgb(0,0,0)" paint-order="fill stroke markers" d=" M 145.125 257.26785714285717 L 214.875 257.26785714285717 L 214.875 327.01785714285717 L 145.125 327.01785714285717 L 145.125 257.26785714285717 Z" stroke-opacity="1" stroke-linecap="round" stroke-miterlimit="10" stroke-width="1.5" stroke-dasharray=""/><path fill="none" stroke="rgb(0,0,0)" paint-order="fill stroke markers" d=" M 155.25 267.39285714285717 L 204.75 267.39285714285717 L 204.75 316.89285714285717 L 155.25 316.89285714285717 L 155.25 267.39285714285717 Z" stroke-opacity="1" stroke-linecap="round" stroke-miterlimit="10" stroke-width="1.5" stroke-dasharray=""/><path fill="none" stroke="rgb(0,0,0)" paint-order="fill stroke markers" d=" M 165.375 277.51785714285717 L 194.625 277.51785714285717 L 194.625 306.76785714285717 L 165.375 306.76785714285717 L 165.375 277.51785714285717 Z" stroke-opacity="1" stroke-linecap="round" stroke-miterlimit="10" stroke-width="1.5" stroke-dasharray=""/><path fill="none" stroke="rgb(0,0,0)" paint-order="fill stroke markers" d=" M 175.5 287.64285714285717 L 184.5 287.64285714285717 L 184.5 296.64285714285717 L 175.5 296.64285714285717 L 175.5 287.64285714285717 Z" stroke-opacity="1" stroke-linecap="round" stroke-miterlimit="10" stroke-width="1.5" stroke-dasharray=""/></g><g><path fill="none" stroke="rgb(0,0,0)" paint-order="fill stroke markers" d=" M 135 352 L 225 352 L 225 442 L 135 442 L 135 352 Z" stroke-opacity="1" stroke-linecap="round" stroke-miterlimit="10" stroke-width="1.5" stroke-dasharray=""/><path fill="none" stroke="rgb(0,0,0)" paint-order="fill stroke markers" d=" M 148.5 365.5 L 211.5 365.5 L 211.5 428.5 L 148.5 428.5 L 148.5 365.5 Z" stroke-opacity="1" stroke-linecap="round" stroke-miterlimit="10" stroke-width="1.5" stroke-dasharray=""/><path fill="none" stroke="rgb(0,0,0)" paint-order="fill stroke markers" d=" M 162 379 L 198 379 L 198 415 L 162 415 L 162 379 Z" stroke-opacity="1" stroke-linecap="round" stroke-miterlimit="10" stroke-width="1.5" stroke-dasharray=""/><path fill="none" stroke="rgb(0,0,0)" paint-order="fill stroke markers" d=" M 175.5 392.5 L 184.5 392.5 L 184.5 401.5 L 175.5 401.5 L 175.5 392.5 Z" stroke-opacity="1" stroke-linecap="round" stroke-miterlimit="10" stroke-width="1.5" stroke-dasharray=""/></g><g><path fill="none" stroke="rgb(0,0,0)" paint-order="fill stroke markers" d=" M 135 456.8571428571429 L 225 456.8571428571429 L 225 546.8571428571429 L 135 546.8571428571429 L 135 456.8571428571429 Z" stroke-opacity="1" stroke-linecap="round" stroke-miterlimit="10" stroke-width="1.5" stroke-dasharray=""/><path fill="none" stroke="rgb(0,0,0)" paint-order="fill stroke markers" d=" M 141.75 463.6071428571429 L 218.25 463.6071428571429 L 218.25 540.1071428571429 L 141.75 540.1071428571429 L 141.75 463.6071428571429 Z" stroke-opacity="1" stroke-linecap="round" stroke-miterlimit="10" stroke-width="1.5" stroke-dasharray=""/><path fill="none" stroke="rgb(0,0,0)" paint-order="fill stroke markers" d=" M 148.5 470.3571428571429 L 211.5 470.3571428571429 L 211.5 533.3571428571429 L 148.5 533.3571428571429 L 148.5 470.3571428571429 Z" stroke-opacity="1" stroke-linecap="round" stroke-miterlimit="10" stroke-width="1.5" stroke-dasharray=""/><path fill="none" stroke="rgb(0,0,0)" paint-order="fill stroke markers" d=" M 155.25 477.1071428571429 L 204.75 477.1071428571429 L 204.75 526.6071428571429 L 155.25 526.6071428571429 L 155.25 477.1071428571429 Z" stroke-opacity="1" stroke-linecap="round" stroke-miterlimit="10" stroke-width="1.5" stroke-dasharray=""/><path fill="none" stroke="rgb(0,0,0)" paint-order="fill stroke markers" d=" M 162 483.8571428571429 L 198 483.8571428571429 L 198 519.8571428571429 L 162 519.8571428571429 L 162 483.8571428571429 Z" stroke-opacity="1" stroke-linecap="round" stroke-miterlimit="10" stroke-width="1.5" stroke-dasharray=""/><path fill="none" stroke="rgb(0,0,0)" paint-order="fill stroke markers" d=" M 168.75 490.6071428571429 L 191.25 490.6071428571429 L 191.25 513.1071428571429 L 168.75 513.1071428571429 L 168.75 490.6071428571429 Z" stroke-opacity="1" stroke-linecap="round" stroke-miterlimit="10" stroke-width="1.5" stroke-dasharray=""/><path fill="none" stroke="rgb(0,0,0)" paint-order="fill stroke markers" d=" M 175.5 497.3571428571429 L 184.5 497.3571428571429 L 184.5 506.3571428571429 L 175.5 506.3571428571429 L 175.5 497.3571428571429 Z" stroke-opacity="1" stroke-linecap="round" stroke-miterlimit="10" stroke-width="1.5" stroke-dasharray=""/></g><g><path fill="none" stroke="rgb(0,0,0)" paint-order="fill stroke markers" d=" M 135 561.7142857142858 L 225 561.7142857142858 L 225 651.7142857142858 L 135 651.7142857142858 L 135 561.7142857142858 Z" stroke-opacity="1" stroke-linecap="round" stroke-miterlimit="10" stroke-width="1.5" stroke-dasharray=""/><path fill="none" stroke="rgb(0,0,0)" paint-order="fill stroke markers" d=" M 145.125 571.8392857142858 L 214.875 571.8392857142858 L 214.875 641.5892857142858 L 145.125 641.5892857142858 L 145.125 571.8392857142858 Z" stroke-opacity="1" stroke-linecap="round" stroke-miterlimit="10" stroke-width="1.5" stroke-dasharray=""/><path fill="none" stroke="rgb(0,0,0)" paint-order="fill stroke markers" d=" M 155.25 581.9642857142858 L 204.75 581.9642857142858 L 204.75 631.4642857142858 L 155.25 631.4642857142858 L 155.25 581.9642857142858 Z" stroke-opacity="1" stroke-linecap="round" stroke-miterlimit="10" stroke-width="1.5" stroke-dasharray=""/><path fill="none" stroke="rgb(0,0,0)" paint-order="fill stroke markers" d=" M 165.375 592.0892857142858 L 194.625 592.0892857142858 L 194.625 621.3392857142858 L 165.375 621.3392857142858 L 165.375 592.0892857142858 Z" stroke-opacity="1" stroke-linecap="round" stroke-miterlimit="10" stroke-width="1.5" stroke-dasharray=""/><path fill="none" stroke="rgb(0,0,0)" paint-order="fill stroke markers" d=" M 175.5 602.2142857142858 L 184.5 602.2142857142858 L 184.5 611.2142857142858 L 175.5 611.2142857142858 L 175.5 602.2142857142858 Z" stroke-opacity="1" stroke-linecap="round" stroke-miterlimit="10" stroke-width="1.5" stroke-dasharray=""/></g><g><path fill="none" stroke="rgb(0,0,0)" paint-order="fill stroke markers" d=" M 135 666.5714285714286 L 225 666.5714285714286 L 225 756.5714285714286 L 135 756.5714285714286 L 135 666.5714285714286 Z" stroke-opacity="1" stroke-linecap="round" stroke-miterlimit="10" stroke-width="1.5" stroke-dasharray=""/><path fill="none" stroke="rgb(0,0,0)" paint-order="fill stroke markers" d=" M 141.75 673.3214285714286 L 218.25 673.3214285714286 L 218.25 749.8214285714286 L 141.75 749.8214285714286 L 141.75 673.3214285714286 Z" stroke-opacity="1" stroke-linecap="round" stroke-miterlimit="10" stroke-width="1.5" stroke-dasharray=""/><path fill="none" stroke="rgb(0,0,0)" paint-order="fill stroke markers" d=" M 148.5 680.0714285714286 L 211.5 680.0714285714286 L 211.5 743.0714285714286 L 148.5 743.0714285714286 L 148.5 680.0714285714286 Z" stroke-opacity="1" stroke-linecap="round" stroke-miterlimit="10" stroke-width="1.5" stroke-dasharray=""/><path fill="none" stroke="rgb(0,0,0)" paint-order="fill stroke markers" d=" M 155.25 686.8214285714286 L 204.75 686.8214285714286 L 204.75 736.3214285714286 L 155.25 736.3214285714286 L 155.25 686.8214285714286 Z" stroke-opacity="1" stroke-linecap="round" stroke-miterlimit="10" stroke-width="1.5" stroke-dasharray=""/><path fill="none" stroke="rgb(0,0,0)" paint-order="fill stroke markers" d=" M 162 693.5714285714286 L 198 693.5714285714286 L 198 729.5714285714286 L 162 729.5714285714286 L 162 693.5714285714286 Z" stroke-opacity="1" stroke-linecap="round" stroke-miterlimit="10" stroke-width="1.5" stroke-dasharray=""/><path fill="none" stroke="rgb(0,0,0)" paint-order="fill stroke markers" d=" M 168.75 700.3214285714286 L 191.25 700.3214285714286 L 191.25 722.8214285714286 L 168.75 722.8214285714286 L 168.75 700.3214285714286 Z" stroke-opacity="1" stroke-linecap="round" stroke-miterlimit="10" stroke-width="1.5" stroke-dasharray=""/><path fill="none" stroke="rgb(0,0,0)" paint-order="fill stroke markers" d=" M 175.5 707.0714285714286 L 184.5 707.0714285714286 L 184.5 716.0714285714286 L 175.5 716.0714285714286 L 175.5 707.0714285714286 Z" stroke-opacity="1" stroke-linecap="round" stroke-miterlimit="10" stroke-width="1.5" stroke-dasharray=""/></g><g><path fill="none" stroke="rgb(0,0,0)" paint-order="fill stroke markers" d=" M 235 37.42857142857143 L 325 37.42857142857143 L 325 127.42857142857143 L 235 127.42857142857143 L 235 37.42857142857143 Z" stroke-opacity="1" stroke-linecap="round" stroke-miterlimit="10" stroke-width="1.5" stroke-dasharray=""/><path fill="none" stroke="rgb(0,0,0)" paint-order="fill stroke markers" d=" M 255.25 57.67857142857143 L 304.75 57.67857142857143 L 304.75 107.17857142857143 L 255.25 107.17857142857143 L 255.25 57.67857142857143 Z" stroke-opacity="1" stroke-linecap="round" stroke-miterlimit="10" stroke-width="1.5" stroke-dasharray=""/><path fill="none" stroke="rgb(0,0,0)" paint-order="fill stroke markers" d=" M 275.5 77.92857142857143 L 284.5 77.92857142857143 L 284.5 86.92857142857143 L 275.5 86.92857142857143 L 275.5 77.92857142857143 Z" stroke-opacity="1" stroke-linecap="round" stroke-miterlimit="10" stroke-width="1.5" stroke-dasharray=""/></g><g><path fill="none" stroke="rgb(0,0,0)" paint-order="fill stroke markers" d=" M 235 142.28571428571428 L 325 142.28571428571428 L 325 232.28571428571428 L 235 232.28571428571428 L 235 142.28571428571428 Z" stroke-opacity="1" stroke-linecap="round" stroke-miterlimit="10" stroke-width="1.5" stroke-dasharray=""/><path fill="none" stroke="rgb(0,0,0)" paint-order="fill stroke markers" d=" M 245.125 152.41071428571428 L 314.875 152.41071428571428 L 314.875 222.16071428571428 L 245.125 222.16071428571428 L 245.125 152.41071428571428 Z" stroke-opacity="1" stroke-linecap="round" stroke-miterlimit="10" stroke-width="1.5" stroke-dasharray=""/><path fill="none" stroke="rgb(0,0,0)" paint-order="fill stroke markers" d=" M 255.25 162.53571428571428 L 304.75 162.53571428571428 L 304.75 212.03571428571428 L 255.25 212.03571428571428 L 255.25 162.53571428571428 Z" stroke-opacity="1" stroke-linecap="round" stroke-miterlimit="10" stroke-width="1.5" stroke-dasharray=""/><path fill="none" stroke="rgb(0,0,0)" paint-order="fill stroke markers" d=" M 265.375 172.66071428571428 L 294.625 172.66071428571428 L 294.625 201.91071428571428 L 265.375 201.91071428571428 L 265.375 172.66071428571428 Z" stroke-opacity="1" stroke-linecap="round" stroke-miterlimit="10" stroke-width="1.5" stroke-dasharray=""/><path fill="none" stroke="rgb(0,0,0)" paint-order="fill stroke markers" d=" M 275.5 182.78571428571428 L 284.5 182.78571428571428 L 284.5 191.78571428571428 L 275.5 191.78571428571428 L 275.5 182.78571428571428 Z" stroke-opacity="1" stroke-linecap="round" stroke-miterlimit="10" stroke-width="1.5" stroke-dasharray=""/></g><g><path fill="none" stroke="rgb(0,0,0)" paint-order="fill stroke markers" d=" M 235 247.14285714285717 L 325 247.14285714285717 L 325 337.14285714285717 L 235 337.14285714285717 L 235 247.14285714285717 Z" stroke-opacity="1" stroke-linecap="round" stroke-miterlimit="10" stroke-width="1.5" stroke-dasharray=""/><path fill="none" stroke="rgb(0,0,0)" paint-order="fill stroke markers" d=" M 248.5 260.64285714285717 L 311.5 260.64285714285717 L 311.5 323.64285714285717 L 248.5 323.64285714285717 L 248.5 260.64285714285717 Z" stroke-opacity="1" stroke-linecap="round" stroke-miterlimit="10" stroke-width="1.5" stroke-dasharray=""/><path fill="none" stroke="rgb(0,0,0)" paint-order="fill stroke markers" d=" M 262 274.14285714285717 L 298 274.14285714285717 L 298 310.14285714285717 L 262 310.14285714285717 L 262 274.14285714285717 Z" stroke-opacity="1" stroke-linecap="round" stroke-miterlimit="10" stroke-width="1.5" stroke-dasharray=""/><path fill="none" stroke="rgb(0,0,0)" paint-order="fill stroke markers" d=" M 275.5 287.64285714285717 L 284.5 287.64285714285717 L 284.5 296.64285714285717 L 275.5 296.64285714285717 L 275.5 287.64285714285717 Z" stroke-opacity="1" stroke-linecap="round" stroke-miterlimit="10" stroke-width="1.5" stroke-dasharray=""/></g><g><path fill="none" stroke="rgb(0,0,0)" paint-order="fill stroke markers" d=" M 235 352 L 325 352 L 325 442 L 235 442 L 235 352 Z" stroke-opacity="1" stroke-linecap="round" stroke-miterlimit="10" stroke-width="1.5" stroke-dasharray=""/><path fill="none" stroke="rgb(0,0,0)" paint-order="fill stroke markers" d=" M 248.5 365.5 L 311.5 365.5 L 311.5 428.5 L 248.5 428.5 L 248.5 365.5 Z" stroke-opacity="1" stroke-linecap="round" stroke-miterlimit="10" stroke-width="1.5" stroke-dasharray=""/><path fill="none" stroke="rgb(0,0,0)" paint-order="fill stroke markers" d=" M 262 379 L 298 379 L 298 415 L 262 415 L 262 379 Z" stroke-opacity="1" stroke-linecap="round" stroke-miterlimit="10" stroke-width="1.5" stroke-dasharray=""/><path fill="none" stroke="rgb(0,0,0)" paint-order="fill stroke markers" d=" M 275.5 392.5 L 284.5 392.5 L 284.5 401.5 L 275.5 401.5 L 275.5 392.5 Z" stroke-opacity="1" stroke-linecap="round" stroke-miterlimit="10" stroke-width="1.5" stroke-dasharray=""/></g><g><path fill="none" stroke="rgb(0,0,0)" paint-order="fill stroke markers" d=" M 235 456.8571428571429 L 325 456.8571428571429 L 325 546.8571428571429 L 235 546.8571428571429 L 235 456.8571428571429 Z" stroke-opacity="1" stroke-linecap="round" stroke-miterlimit="10" stroke-width="1.5" stroke-dasharray=""/><path fill="none" stroke="rgb(0,0,0)" paint-order="fill stroke markers" d=" M 255.25 477.1071428571429 L 304.75 477.1071428571429 L 304.75 526.6071428571429 L 255.25 526.6071428571429 L 255.25 477.1071428571429 Z" stroke-opacity="1" stroke-linecap="round" stroke-miterlimit="10" stroke-width="1.5" stroke-dasharray=""/><path fill="none" stroke="rgb(0,0,0)" paint-order="fill stroke markers" d=" M 275.5 497.3571428571429 L 284.5 497.3571428571429 L 284.5 506.3571428571429 L 275.5 506.3571428571429 L 275.5 497.3571428571429 Z" stroke-opacity="1" stroke-linecap="round" stroke-miterlimit="10" stroke-width="1.5" stroke-dasharray=""/></g><g><path fill="none" stroke="rgb(0,0,0)" paint-order="fill stroke markers" d=" M 235 561.7142857142858 L 325 561.7142857142858 L 325 651.7142857142858 L 235 651.7142857142858 L 235 561.7142857142858 Z" stroke-opacity="1" stroke-linecap="round" stroke-miterlimit="10" stroke-width="1.5" stroke-dasharray=""/><path fill="none" stroke="rgb(0,0,0)" paint-order="fill stroke markers" d=" M 245.125 571.8392857142858 L 314.875 571.8392857142858 L 314.875 641.5892857142858 L 245.125 641.5892857142858 L 245.125 571.8392857142858 Z" stroke-opacity="1" stroke-linecap="round" stroke-miterlimit="10" stroke-width="1.5" stroke-dasharray=""/><path fill="none" stroke="rgb(0,0,0)" paint-order="fill stroke markers" d=" M 255.25 581.9642857142858 L 304.75 581.9642857142858 L 304.75 631.4642857142858 L 255.25 631.4642857142858 L 255.25 581.9642857142858 Z" stroke-opacity="1" stroke-linecap="round" stroke-miterlimit="10" stroke-width="1.5" stroke-dasharray=""/><path fill="none" stroke="rgb(0,0,0)" paint-order="fill stroke markers" d=" M 265.375 592.0892857142858 L 294.625 592.0892857142858 L 294.625 621.3392857142858 L 265.375 621.3392857142858 L 265.375 592.0892857142858 Z" stroke-opacity="1" stroke-linecap="round" stroke-miterlimit="10" stroke-width="1.5" stroke-dasharray=""/><path fill="none" stroke="rgb(0,0,0)" paint-order="fill stroke markers" d=" M 275.5 602.2142857142858 L 284.5 602.2142857142858 L 284.5 611.2142857142858 L 275.5 611.2142857142858 L 275.5 602.2142857142858 Z" stroke-opacity="1" stroke-linecap="round" stroke-miterlimit="10" stroke-width="1.5" stroke-dasharray=""/></g><g><path fill="none" stroke="rgb(0,0,0)" paint-order="fill stroke markers" d=" M 235 666.5714285714286 L 325 666.5714285714286 L 325 756.5714285714286 L 235 756.5714285714286 L 235 666.5714285714286 Z" stroke-opacity="1" stroke-linecap="round" stroke-miterlimit="10" stroke-width="1.5" stroke-dasharray=""/><path fill="none" stroke="rgb(0,0,0)" paint-order="fill stroke markers" d=" M 245.125 676.6964285714286 L 314.875 676.6964285714286 L 314.875 746.4464285714286 L 245.125 746.4464285714286 L 245.125 676.6964285714286 Z" stroke-opacity="1" stroke-linecap="round" stroke-miterlimit="10" stroke-width="1.5" stroke-dasharray=""/><path fill="none" stroke="rgb(0,0,0)" paint-order="fill stroke markers" d=" M 255.25 686.8214285714286 L 304.75 686.8214285714286 L 304.75 736.3214285714286 L 255.25 736.3214285714286 L 255.25 686.8214285714286 Z" stroke-opacity="1" stroke-linecap="round" stroke-miterlimit="10" stroke-width="1.5" stroke-dasharray=""/><path fill="none" stroke="rgb(0,0,0)" paint-order="fill stroke markers" d=" M 265.375 696.9464285714286 L 294.625 696.9464285714286 L 294.625 726.1964285714286 L 265.375 726.1964285714286 L 265.375 696.9464285714286 Z" stroke-opacity="1" stroke-linecap="round" stroke-miterlimit="10" stroke-width="1.5" stroke-dasharray=""/><path fill="none" stroke="rgb(0,0,0)" paint-order="fill stroke markers" d=" M 275.5 707.0714285714286 L 284.5 707.0714285714286 L 284.5 716.0714285714286 L 275.5 716.0714285714286 L 275.5 707.0714285714286 Z" stroke-opacity="1" stroke-linecap="round" stroke-miterlimit="10" stroke-width="1.5" stroke-dasharray=""/></g><g><path fill="none" stroke="rgb(0,0,0)" paint-order="fill stroke markers" d=" M 335 37.42857142857143 L 425 37.42857142857143 L 425 127.42857142857143 L 335 127.42857142857143 L 335 37.42857142857143 Z" stroke-opacity="1" stroke-linecap="round" stroke-miterlimit="10" stroke-width="1.5" stroke-dasharray=""/><path fill="none" stroke="rgb(0,0,0)" paint-order="fill stroke markers" d=" M 355.25 57.67857142857143 L 404.75 57.67857142857143 L 404.75 107.17857142857143 L 355.25 107.17857142857143 L 355.25 57.67857142857143 Z" stroke-opacity="1" stroke-linecap="round" stroke-miterlimit="10" stroke-width="1.5" stroke-dasharray=""/><path fill="none" stroke="rgb(0,0,0)" paint-order="fill stroke markers" d=" M 375.5 77.92857142857143 L 384.5 77.92857142857143 L 384.5 86.92857142857143 L 375.5 86.92857142857143 L 375.5 77.92857142857143 Z" stroke-opacity="1" stroke-linecap="round" stroke-miterlimit="10" stroke-width="1.5" stroke-dasharray=""/></g><g><path fill="none" stroke="rgb(0,0,0)" paint-order="fill stroke markers" d=" M 335 142.28571428571428 L 425 142.28571428571428 L 425 232.28571428571428 L 335 232.28571428571428 L 335 142.28571428571428 Z" stroke-opacity="1" stroke-linecap="round" stroke-miterlimit="10" stroke-width="1.5" stroke-dasharray=""/><path fill="none" stroke="rgb(0,0,0)" paint-order="fill stroke markers" d=" M 341.75 149.03571428571428 L 418.25 149.03571428571428 L 418.25 225.53571428571428 L 341.75 225.53571428571428 L 341.75 149.03571428571428 Z" stroke-opacity="1" stroke-linecap="round" stroke-miterlimit="10" stroke-width="1.5" stroke-dasharray=""/><path fill="none" stroke="rgb(0,0,0)" paint-order="fill stroke markers" d=" M 348.5 155.78571428571428 L 411.5 155.78571428571428 L 411.5 218.78571428571428 L 348.5 218.78571428571428 L 348.5 155.78571428571428 Z" stroke-opacity="1" stroke-linecap="round" stroke-miterlimit="10" stroke-width="1.5" stroke-dasharray=""/><path fill="none" stroke="rgb(0,0,0)" paint-order="fill stroke markers" d=" M 355.25 162.53571428571428 L 404.75 162.53571428571428 L 404.75 212.03571428571428 L 355.25 212.03571428571428 L 355.25 162.53571428571428 Z" stroke-opacity="1" stroke-linecap="round" stroke-miterlimit="10" stroke-width="1.5" stroke-dasharray=""/><path fill="none" stroke="rgb(0,0,0)" paint-order="fill stroke markers" d=" M 362 169.28571428571428 L 398 169.28571428571428 L 398 205.28571428571428 L 362 205.28571428571428 L 362 169.28571428571428 Z" stroke-opacity="1" stroke-linecap="round" stroke-miterlimit="10" stroke-width="1.5" stroke-dasharray=""/><path fill="none" stroke="rgb(0,0,0)" paint-order="fill stroke markers" d=" M 368.75 176.03571428571428 L 391.25 176.03571428571428 L 391.25 198.53571428571428 L 368.75 198.53571428571428 L 368.75 176.03571428571428 Z" stroke-opacity="1" stroke-linecap="round" stroke-miterlimit="10" stroke-width="1.5" stroke-dasharray=""/><path fill="none" stroke="rgb(0,0,0)" paint-order="fill stroke markers" d=" M 375.5 182.78571428571428 L 384.5 182.78571428571428 L 384.5 191.78571428571428 L 375.5 191.78571428571428 L 375.5 182.78571428571428 Z" stroke-opacity="1" stroke-linecap="round" stroke-miterlimit="10" stroke-width="1.5" stroke-dasharray=""/></g><g><path fill="none" stroke="rgb(0,0,0)" paint-order="fill stroke markers" d=" M 335 247.14285714285717 L 425 247.14285714285717 L 425 337.14285714285717 L 335 337.14285714285717 L 335 247.14285714285717 Z" stroke-opacity="1" stroke-linecap="round" stroke-miterlimit="10" stroke-width="1.5" stroke-dasharray=""/><path fill="none" stroke="rgb(0,0,0)" paint-order="fill stroke markers" d=" M 343.1 255.24285714285716 L 416.9 255.24285714285716 L 416.9 329.04285714285714 L 343.1 329.04285714285714 L 343.1 255.24285714285716 Z" stroke-opacity="1" stroke-linecap="round" stroke-miterlimit="10" stroke-width="1.5" stroke-dasharray=""/><path fill="none" stroke="rgb(0,0,0)" paint-order="fill stroke markers" d=" M 351.2 263.34285714285716 L 408.8 263.34285714285716 L 408.8 320.9428571428572 L 351.2 320.9428571428572 L 351.2 263.34285714285716 Z" stroke-opacity="1" stroke-linecap="round" stroke-miterlimit="10" stroke-width="1.5" stroke-dasharray=""/><path fill="none" stroke="rgb(0,0,0)" paint-order="fill stroke markers" d=" M 359.3 271.4428571428572 L 400.7 271.4428571428572 L 400.7 312.84285714285716 L 359.3 312.84285714285716 L 359.3 271.4428571428572 Z" stroke-opacity="1" stroke-linecap="round" stroke-miterlimit="10" stroke-width="1.5" stroke-dasharray=""/><path fill="none" stroke="rgb(0,0,0)" paint-order="fill stroke markers" d=" M 367.4 279.54285714285714 L 392.6 279.54285714285714 L 392.6 304.7428571428572 L 367.4 304.7428571428572 L 367.4 279.54285714285714 Z" stroke-opacity="1" stroke-linecap="round" stroke-miterlimit="10" stroke-width="1.5" stroke-dasharray=""/><path fill="none" stroke="rgb(0,0,0)" paint-order="fill stroke markers" d=" M 375.5 287.64285714285717 L 384.5 287.64285714285717 L 384.5 296.64285714285717 L 375.5 296.64285714285717 L 375.5 287.64285714285717 Z" stroke-opacity="1" stroke-linecap="round" stroke-miterlimit="10" stroke-width="1.5" stroke-dasharray=""/></g><g><path fill="none" stroke="rgb(0,0,0)" paint-order="fill stroke markers" d=" M 335 352 L 425 352 L 425 442 L 335 442 L 335 352 Z" stroke-opacity="1" stroke-linecap="round" stroke-miterlimit="10" stroke-width="1.5" stroke-dasharray=""/><path fill="none" stroke="rgb(0,0,0)" paint-order="fill stroke markers" d=" M 355.25 372.25 L 404.75 372.25 L 404.75 421.75 L 355.25 421.75 L 355.25 372.25 Z" stroke-opacity="1" stroke-linecap="round" stroke-miterlimit="10" stroke-width="1.5" stroke-dasharray=""/><path fill="none" stroke="rgb(0,0,0)" paint-order="fill stroke markers" d=" M 375.5 392.5 L 384.5 392.5 L 384.5 401.5 L 375.5 401.5 L 375.5 392.5 Z" stroke-opacity="1" stroke-linecap="round" stroke-miterlimit="10" stroke-width="1.5" stroke-dasharray=""/></g><g><path fill="none" stroke="rgb(0,0,0)" paint-order="fill stroke markers" d=" M 335 456.8571428571429 L 425 456.8571428571429 L 425 546.8571428571429 L 335 546.8571428571429 L 335 456.8571428571429 Z" stroke-opacity="1" stroke-linecap="round" stroke-miterlimit="10" stroke-width="1.5" stroke-dasharray=""/><path fill="none" stroke="rgb(0,0,0)" paint-order="fill stroke markers" d=" M 348.5 470.3571428571429 L 411.5 470.3571428571429 L 411.5 533.3571428571429 L 348.5 533.3571428571429 L 348.5 470.3571428571429 Z" stroke-opacity="1" stroke-linecap="round" stroke-miterlimit="10" stroke-width="1.5" stroke-dasharray=""/><path fill="none" stroke="rgb(0,0,0)" paint-order="fill stroke markers" d=" M 362 483.8571428571429 L 398 483.8571428571429 L 398 519.8571428571429 L 362 519.8571428571429 L 362 483.8571428571429 Z" stroke-opacity="1" stroke-linecap="round" stroke-miterlimit="10" stroke-width="1.5" stroke-dasharray=""/><path fill="none" stroke="rgb(0,0,0)" paint-order="fill stroke markers" d=" M 375.5 497.3571428571429 L 384.5 497.3571428571429 L 384.5 506.3571428571429 L 375.5 506.3571428571429 L 375.5 497.3571428571429 Z" stroke-opacity="1" stroke-linecap="round" stroke-miterlimit="10" stroke-width="1.5" stroke-dasharray=""/></g><g><path fill="none" stroke="rgb(0,0,0)" paint-order="fill stroke markers" d=" M 335 561.7142857142858 L 425 561.7142857142858 L 425 651.7142857142858 L 335 651.7142857142858 L 335 561.7142857142858 Z" stroke-opacity="1" stroke-linecap="round" stroke-miterlimit="10" stroke-width="1.5" stroke-dasharray=""/><path fill="none" stroke="rgb(0,0,0)" paint-order="fill stroke markers" d=" M 348.5 575.2142857142858 L 411.5 575.2142857142858 L 411.5 638.2142857142858 L 348.5 638.2142857142858 L 348.5 575.2142857142858 Z" stroke-opacity="1" stroke-linecap="round" stroke-miterlimit="10" stroke-width="1.5" stroke-dasharray=""/><path fill="none" stroke="rgb(0,0,0)" paint-order="fill stroke markers" d=" M 362 588.7142857142858 L 398 588.7142857142858 L 398 624.7142857142858 L 362 624.7142857142858 L 362 588.7142857142858 Z" stroke-opacity="1" stroke-linecap="round" stroke-miterlimit="10" stroke-width="1.5" stroke-dasharray=""/><path fill="none" stroke="rgb(0,0,0)" paint-order="fill stroke markers" d=" M 375.5 602.2142857142858 L 384.5 602.2142857142858 L 384.5 611.2142857142858 L 375.5 611.2142857142858 L 375.5 602.2142857142858 Z" stroke-opacity="1" stroke-linecap="round" stroke-miterlimit="10" stroke-width="1.5" stroke-dasharray=""/></g><g><path fill="none" stroke="rgb(0,0,0)" paint-order="fill stroke markers" d=" M 335 666.5714285714286 L 425 666.5714285714286 L 425 756.5714285714286 L 335 756.5714285714286 L 335 666.5714285714286 Z" stroke-opacity="1" stroke-linecap="round" stroke-miterlimit="10" stroke-width="1.5" stroke-dasharray=""/><path fill="none" stroke="rgb(0,0,0)" paint-order="fill stroke markers" d=" M 348.5 680.0714285714286 L 411.5 680.0714285714286 L 411.5 743.0714285714286 L 348.5 743.0714285714286 L 348.5 680.0714285714286 Z" stroke-opacity="1" stroke-linecap="round" stroke-miterlimit="10" stroke-width="1.5" stroke-dasharray=""/><path fill="none" stroke="rgb(0,0,0)" paint-order="fill stroke markers" d=" M 362 693.5714285714286 L 398 693.5714285714286 L 398 729.5714285714286 L 362 729.5714285714286 L 362 693.5714285714286 Z" stroke-opacity="1" stroke-linecap="round" stroke-miterlimit="10" stroke-width="1.5" stroke-dasharray=""/><path fill="none" stroke="rgb(0,0,0)" paint-order="fill stroke markers" d=" M 375.5 707.0714285714286 L 384.5 707.0714285714286 L 384.5 716.0714285714286 L 375.5 716.0714285714286 L 375.5 707.0714285714286 Z" stroke-opacity="1" stroke-linecap="round" stroke-miterlimit="10" stroke-width="1.5" stroke-dasharray=""/></g><g><path fill="none" stroke="rgb(0,0,0)" paint-order="fill stroke markers" d=" M 435 37.42857142857143 L 525 37.42857142857143 L 525 127.42857142857143 L 435 127.42857142857143 L 435 37.42857142857143 Z" stroke-opacity="1" stroke-linecap="round" stroke-miterlimit="10" stroke-width="1.5" stroke-dasharray=""/><path fill="none" stroke="rgb(0,0,0)" paint-order="fill stroke markers" d=" M 448.5 50.92857142857143 L 511.5 50.92857142857143 L 511.5 113.92857142857143 L 448.5 113.92857142857143 L 448.5 50.92857142857143 Z" stroke-opacity="1" stroke-linecap="round" stroke-miterlimit="10" stroke-width="1.5" stroke-dasharray=""/><path fill="none" stroke="rgb(0,0,0)" paint-order="fill stroke markers" d=" M 462 64.42857142857143 L 498 64.42857142857143 L 498 100.42857142857143 L 462 100.42857142857143 L 462 64.42857142857143 Z" stroke-opacity="1" stroke-linecap="round" stroke-miterlimit="10" stroke-width="1.5" stroke-dasharray=""/><path fill="none" stroke="rgb(0,0,0)" paint-order="fill stroke markers" d=" M 475.5 77.92857142857143 L 484.5 77.92857142857143 L 484.5 86.92857142857143 L 475.5 86.92857142857143 L 475.5 77.92857142857143 Z" stroke-opacity="1" stroke-linecap="round" stroke-miterlimit="10" stroke-width="1.5" stroke-dasharray=""/></g><g><path fill="none" stroke="rgb(0,0,0)" paint-order="fill stroke markers" d=" M 435 142.28571428571428 L 525 142.28571428571428 L 525 232.28571428571428 L 435 232.28571428571428 L 435 142.28571428571428 Z" stroke-opacity="1" stroke-linecap="round" stroke-miterlimit="10" stroke-width="1.5" stroke-dasharray=""/><path fill="none" stroke="rgb(0,0,0)" paint-order="fill stroke markers" d=" M 448.5 155.78571428571428 L 511.5 155.78571428571428 L 511.5 218.78571428571428 L 448.5 218.78571428571428 L 448.5 155.78571428571428 Z" stroke-opacity="1" stroke-linecap="round" stroke-miterlimit="10" stroke-width="1.5" stroke-dasharray=""/><path fill="none" stroke="rgb(0,0,0)" paint-order="fill stroke markers" d=" M 462 169.28571428571428 L 498 169.28571428571428 L 498 205.28571428571428 L 462 205.28571428571428 L 462 169.28571428571428 Z" stroke-opacity="1" stroke-linecap="round" stroke-miterlimit="10" stroke-width="1.5" stroke-dasharray=""/><path fill="none" stroke="rgb(0,0,0)" paint-order="fill stroke markers" d=" M 475.5 182.78571428571428 L 484.5 182.78571428571428 L 484.5 191.78571428571428 L 475.5 191.78571428571428 L 475.5 182.78571428571428 Z" stroke-opacity="1" stroke-linecap="round" stroke-miterlimit="10" stroke-width="1.5" stroke-dasharray=""/></g><g><path fill="none" stroke="rgb(0,0,0)" paint-order="fill stroke markers" d=" M 435 247.14285714285717 L 525 247.14285714285717 L 525 337.14285714285717 L 435 337.14285714285717 L 435 247.14285714285717 Z" stroke-opacity="1" stroke-linecap="round" stroke-miterlimit="10" stroke-width="1.5" stroke-dasharray=""/><path fill="none" stroke="rgb(0,0,0)" paint-order="fill stroke markers" d=" M 443.1 255.24285714285716 L 516.9 255.24285714285716 L 516.9 329.04285714285714 L 443.1 329.04285714285714 L 443.1 255.24285714285716 Z" stroke-opacity="1" stroke-linecap="round" stroke-miterlimit="10" stroke-width="1.5" stroke-dasharray=""/><path fill="none" stroke="rgb(0,0,0)" paint-order="fill stroke markers" d=" M 451.2 263.34285714285716 L 508.8 263.34285714285716 L 508.8 320.9428571428572 L 451.2 320.9428571428572 L 451.2 263.34285714285716 Z" stroke-opacity="1" stroke-linecap="round" stroke-miterlimit="10" stroke-width="1.5" stroke-dasharray=""/><path fill="none" stroke="rgb(0,0,0)" paint-order="fill stroke markers" d=" M 459.3 271.4428571428572 L 500.7 271.4428571428572 L 500.7 312.84285714285716 L 459.3 312.84285714285716 L 459.3 271.4428571428572 Z" stroke-opacity="1" stroke-linecap="round" stroke-miterlimit="10" stroke-width="1.5" stroke-dasharray=""/><path fill="none" stroke="rgb(0,0,0)" paint-order="fill stroke markers" d=" M 467.4 279.54285714285714 L 492.6 279.54285714285714 L 492.6 304.7428571428572 L 467.4 304.7428571428572 L 467.4 279.54285714285714 Z" stroke-opacity="1" stroke-linecap="round" stroke-miterlimit="10" stroke-width="1.5" stroke-dasharray=""/><path fill="none" stroke="rgb(0,0,0)" paint-order="fill stroke markers" d=" M 475.5 287.64285714285717 L 484.5 287.64285714285717 L 484.5 296.64285714285717 L 475.5 296.64285714285717 L 475.5 287.64285714285717 Z" stroke-opacity="1" stroke-linecap="round" stroke-miterlimit="10" stroke-width="1.5" stroke-dasharray=""/></g><g><path fill="none" stroke="rgb(0,0,0)" paint-order="fill stroke markers" d=" M 435 352 L 525 352 L 525 442 L 435 442 L 435 352 Z" stroke-opacity="1" stroke-linecap="round" stroke-miterlimit="10" stroke-width="1.5" stroke-dasharray=""/><path fill="none" stroke="rgb(0,0,0)" paint-order="fill stroke markers" d=" M 445.125 362.125 L 514.875 362.125 L 514.875 431.875 L 445.125 431.875 L 445.125 362.125 Z" stroke-opacity="1" stroke-linecap="round" stroke-miterlimit="10" stroke-width="1.5" stroke-dasharray=""/><path fill="none" stroke="rgb(0,0,0)" paint-order="fill stroke markers" d=" M 455.25 372.25 L 504.75 372.25 L 504.75 421.75 L 455.25 421.75 L 455.25 372.25 Z" stroke-opacity="1" stroke-linecap="round" stroke-miterlimit="10" stroke-width="1.5" stroke-dasharray=""/><path fill="none" stroke="rgb(0,0,0)" paint-order="fill stroke markers" d=" M 465.375 382.375 L 494.625 382.375 L 494.625 411.625 L 465.375 411.625 L 465.375 382.375 Z" stroke-opacity="1" stroke-linecap="round" stroke-miterlimit="10" stroke-width="1.5" stroke-dasharray=""/><path fill="none" stroke="rgb(0,0,0)" paint-order="fill stroke markers" d=" M 475.5 392.5 L 484.5 392.5 L 484.5 401.5 L 475.5 401.5 L 475.5 392.5 Z" stroke-opacity="1" stroke-linecap="round" stroke-miterlimit="10" stroke-width="1.5" stroke-dasharray=""/></g><g><path fill="none" stroke="rgb(0,0,0)" paint-order="fill stroke markers" d=" M 435 456.8571428571429 L 525 456.8571428571429 L 525 546.8571428571429 L 435 546.8571428571429 L 435 456.8571428571429 Z" stroke-opacity="1" stroke-linecap="round" stroke-miterlimit="10" stroke-width="1.5" stroke-dasharray=""/><path fill="none" stroke="rgb(0,0,0)" paint-order="fill stroke markers" d=" M 441.75 463.6071428571429 L 518.25 463.6071428571429 L 518.25 540.1071428571429 L 441.75 540.1071428571429 L 441.75 463.6071428571429 Z" stroke-opacity="1" stroke-linecap="round" stroke-miterlimit="10" stroke-width="1.5" stroke-dasharray=""/><path fill="none" stroke="rgb(0,0,0)" paint-order="fill stroke markers" d=" M 448.5 470.3571428571429 L 511.5 470.3571428571429 L 511.5 533.3571428571429 L 448.5 533.3571428571429 L 448.5 470.3571428571429 Z" stroke-opacity="1" stroke-linecap="round" stroke-miterlimit="10" stroke-width="1.5" stroke-dasharray=""/><path fill="none" stroke="rgb(0,0,0)" paint-order="fill stroke markers" d=" M 455.25 477.1071428571429 L 504.75 477.1071428571429 L 504.75 526.6071428571429 L 455.25 526.6071428571429 L 455.25 477.1071428571429 Z" stroke-opacity="1" stroke-linecap="round" stroke-miterlimit="10" stroke-width="1.5" stroke-dasharray=""/><path fill="none" stroke="rgb(0,0,0)" paint-order="fill stroke markers" d=" M 462 483.8571428571429 L 498 483.8571428571429 L 498 519.8571428571429 L 462 519.8571428571429 L 462 483.8571428571429 Z" stroke-opacity="1" stroke-linecap="round" stroke-miterlimit="10" stroke-width="1.5" stroke-dasharray=""/><path fill="none" stroke="rgb(0,0,0)" paint-order="fill stroke markers" d=" M 468.75 490.6071428571429 L 491.25 490.6071428571429 L 491.25 513.1071428571429 L 468.75 513.1071428571429 L 468.75 490.6071428571429 Z" stroke-opacity="1" stroke-linecap="round" stroke-miterlimit="10" stroke-width="1.5" stroke-dasharray=""/><path fill="none" stroke="rgb(0,0,0)" paint-order="fill stroke markers" d=" M 475.5 497.3571428571429 L 484.5 497.3571428571429 L 484.5 506.3571428571429 L 475.5 506.3571428571429 L 475.5 497.3571428571429 Z" stroke-opacity="1" stroke-linecap="round" stroke-miterlimit="10" stroke-width="1.5" stroke-dasharray=""/></g><g><path fill="none" stroke="rgb(0,0,0)" paint-order="fill stroke markers" d=" M 435 561.7142857142858 L 525 561.7142857142858 L 525 651.7142857142858 L 435 651.7142857142858 L 435 561.7142857142858 Z" stroke-opacity="1" stroke-linecap="round" stroke-miterlimit="10" stroke-width="1.5" stroke-dasharray=""/><path fill="none" stroke="rgb(0,0,0)" paint-order="fill stroke markers" d=" M 455.25 581.9642857142858 L 504.75 581.9642857142858 L 504.75 631.4642857142858 L 455.25 631.4642857142858 L 455.25 581.9642857142858 Z" stroke-opacity="1" stroke-linecap="round" stroke-miterlimit="10" stroke-width="1.5" stroke-dasharray=""/><path fill="none" stroke="rgb(0,0,0)" paint-order="fill stroke markers" d=" M 475.5 602.2142857142858 L 484.5 602.2142857142858 L 484.5 611.2142857142858 L 475.5 611.2142857142858 L 475.5 602.2142857142858 Z" stroke-opacity="1" stroke-linecap="round" stroke-miterlimit="10" stroke-width="1.5" stroke-dasharray=""/></g><g><path fill="none" stroke="rgb(0,0,0)" paint-order="fill stroke markers" d=" M 435 666.5714285714286 L 525 666.5714285714286 L 525 756.5714285714286 L 435 756.5714285714286 L 435 666.5714285714286 Z" stroke-opacity="1" stroke-linecap="round" stroke-miterlimit="10" stroke-width="1.5" stroke-dasharray=""/><path fill="none" stroke="rgb(0,0,0)" paint-order="fill stroke markers" d=" M 448.5 680.0714285714286 L 511.5 680.0714285714286 L 511.5 743.0714285714286 L 448.5 743.0714285714286 L 448.5 680.0714285714286 Z" stroke-opacity="1" stroke-linecap="round" stroke-miterlimit="10" stroke-width="1.5" stroke-dasharray=""/><path fill="none" stroke="rgb(0,0,0)" paint-order="fill stroke markers" d=" M 462 693.5714285714286 L 498 693.5714285714286 L 498 729.5714285714286 L 462 729.5714285714286 L 462 693.5714285714286 Z" stroke-opacity="1" stroke-linecap="round" stroke-miterlimit="10" stroke-width="1.5" stroke-dasharray=""/><path fill="none" stroke="rgb(0,0,0)" paint-order="fill stroke markers" d=" M 475.5 707.0714285714286 L 484.5 707.0714285714286 L 484.5 716.0714285714286 L 475.5 716.0714285714286 L 475.5 707.0714285714286 Z" stroke-opacity="1" stroke-linecap="round" stroke-miterlimit="10" stroke-width="1.5" stroke-dasharray=""/></g></g></svg>