<?xml version="1.0" standalone="no" ?>
    <!DOCTYPE svg PUBLIC "-//W3C//DTD SVG 1.1//EN" 
        "http://www.w3.org/Graphics/SVG/1.1/DTD/svg11.dtd">
        <svg version="1.1" id="pattern" xmlns="http://www.w3.org/2000/svg" xmlns:xlink="http://www.w3.org/1999/xlink"
        x="0" y="0"
        viewBox="0 0 3507.87591 4960.6326"
        width="29.7cm"
        height="42cm" 
        xml:space="preserve">
          <g>
          <path d="M 734.252365 440.94512000000014 L 1244.09516 440.94512000000014 L 1244.09516 950.7879150000001 L 734.252365 950.7879150000001 L 734.252365 440.94512000000014 M 1244.09516 440.94512000000014 L 1753.937955 440.94512000000014 L 1753.937955 950.7879150000001 L 1244.09516 950.7879150000001 L 1244.09516 440.94512000000014 M 1753.937955 440.94512000000014 L 2263.78075 440.94512000000014 L 2263.78075 950.7879150000001 L 1753.937955 950.7879150000001 L 1753.937955 440.94512000000014 M 2263.78075 440.94512000000014 L 2773.623545 440.94512000000014 L 2773.623545 950.7879150000001 L 2263.78075 950.7879150000001 L 2263.78075 440.94512000000014 M 2773.623545 440.94512000000014 L 3283.46634 440.94512000000014 L 3283.46634 950.7879150000001 L 2773.623545 950.7879150000001 L 2773.623545 440.94512000000014 M 734.252365 950.7879150000001 L 1244.09516 950.7879150000001 L 1244.09516 1460.6307100000001 L 734.252365 1460.6307100000001 L 734.252365 950.7879150000001 M 1244.09516 950.7879150000001 L 1753.937955 950.7879150000001 L 1753.937955 1460.6307100000001 L 1244.09516 1460.6307100000001 L 1244.09516 950.7879150000001 M 1753.937955 950.7879150000001 L 2263.78075 950.7879150000001 L 2263.78075 1460.6307100000001 L 1753.937955 1460.6307100000001 L 1753.937955 950.7879150000001 M 2263.78075 950.7879150000001 L 2773.623545 950.7879150000001 L 2773.623545 1460.6307100000001 L 2263.78075 1460.6307100000001 L 2263.78075 950.7879150000001 M 2773.623545 950.7879150000001 L 3283.46634 950.7879150000001 L 3283.46634 1460.6307100000001 L 2773.623545 1460.6307100000001 L 2773.623545 950.7879150000001 M 734.252365 1460.6307100000001 L 1244.09516 1460.6307100000001 L 1244.09516 1970.4735050000002 L 734.252365 1970.4735050000002 L 734.252365 1460.6307100000001 M 1244.09516 1460.6307100000001 L 1753.937955 1460.6307100000001 L 1753.937955 1970.4735050000002 L 1244.09516 1970.4735050000002 L 1244.09516 1460.6307100000001 M 1753.937955 1460.6307100000001 L 2263.78075 1460.6307100000001 L 2263.78075 1970.4735050000002 L 1753.937955 1970.4735050000002 L 1753.937955 1460.6307100000001 M 2263.78075 1460.6307100000001 L 2773.623545 1460.6307100000001 L 2773.623545 1970.4735050000002 L 2263.78075 1970.4735050000002 L 2263.78075 1460.6307100000001 M 2773.623545 1460.6307100000001 L 3283.46634 1460.6307100000001 L 3283.46634 1970.4735050000002 L 2773.623545 1970.4735050000002 L 2773.623545 1460.6307100000001 M 734.252365 1970.4735050000002 L 1244.09516 1970.4735050000002 L 1244.09516 2480.3163 L 734.252365 2480.3163 L 734.252365 1970.4735050000002 M 1244.09516 1970.4735050000002 L 1753.937955 1970.4735050000002 L 1753.937955 2480.3163 L 1244.09516 2480.3163 L 1244.09516 1970.4735050000002 M 1753.937955 1970.4735050000002 L 2263.78075 1970.4735050000002 L 2263.78075 2480.3163 L 1753.937955 2480.3163 L 1753.937955 1970.4735050000002 M 2263.78075 1970.4735050000002 L 2773.623545 1970.4735050000002 L 2773.623545 2480.3163 L 2263.78075 2480.3163 L 2263.78075 1970.4735050000002 M 2773.623545 1970.4735050000002 L 3283.46634 1970.4735050000002 L 3283.46634 2480.3163 L 2773.623545 2480.3163 L 2773.623545 1970.4735050000002 M 734.252365 2480.3163 L 1244.09516 2480.3163 L 1244.09516 2990.1590950000004 L 734.252365 2990.1590950000004 L 734.252365 2480.3163 M 1244.09516 2480.3163 L 1753.937955 2480.3163 L 1753.937955 2990.1590950000004 L 1244.09516 2990.1590950000004 L 1244.09516 2480.3163 M 1753.937955 2480.3163 L 2263.78075 2480.3163 L 2263.78075 2990.1590950000004 L 1753.937955 2990.1590950000004 L 1753.937955 2480.3163 M 2263.78075 2480.3163 L 2773.623545 2480.3163 L 2773.623545 2990.1590950000004 L 2263.78075 2990.1590950000004 L 2263.78075 2480.3163 M 2773.623545 2480.3163 L 3283.46634 2480.3163 L 3283.46634 2990.1590950000004 L 2773.623545 2990.1590950000004 L 2773.623545 2480.3163 M 734.252365 2990.1590950000004 L 1244.09516 2990.1590950000004 L 1244.09516 3500.00189 L 734.252365 3500.00189 L 734.252365 2990.1590950000004 M 1244.09516 2990.1590950000004 L 1753.937955 2990.1590950000004 L 1753.937955 3500.00189 L 1244.09516 3500.00189 L 1244.09516 2990.1590950000004 M 1753.937955 2990.1590950000004 L 2263.78075 2990.1590950000004 L 2263.78075 3500.00189 L 1753.937955 3500.00189 L 1753.937955 2990.1590950000004 M 2263.78075 2990.1590950000004 L 2773.623545 2990.1590950000004 L 2773.623545 3500.00189 L 2263.78075 3500.00189 L 2263.78075 2990.1590950000004 M 2773.623545 2990.1590950000004 L 3283.46634 2990.1590950000004 L 3283.46634 3500.00189 L 2773.623545 3500.00189 L 2773.623545 2990.1590950000004 M 734.252365 3500.00189 L 1244.09516 3500.00189 L 1244.09516 4009.8446850000005 L 734.252365 4009.8446850000005 L 734.252365 3500.00189 M 1244.09516 3500.00189 L 1753.937955 3500.00189 L 1753.937955 4009.8446850000005 L 1244.09516 4009.8446850000005 L 1244.09516 3500.00189 M 1753.937955 3500.00189 L 2263.78075 3500.00189 L 2263.78075 4009.8446850000005 L 1753.937955 4009.8446850000005 L 1753.937955 3500.00189 M 2263.78075 3500.00189 L 2773.623545 3500.00189 L 2773.623545 4009.8446850000005 L 2263.78075 4009.8446850000005 L 2263.78075 3500.00189 M 2773.623545 3500.00189 L 3283.46634 3500.00189 L 3283.46634 4009.8446850000005 L 2773.623545 4009.8446850000005 L 2773.623545 3500.00189 M 734.252365 4009.8446850000005 L 1244.09516 4009.8446850000005 L 1244.09516 4519.6874800000005 L 734.252365 4519.6874800000005 L 734.252365 4009.8446850000005 M 1244.09516 4009.8446850000005 L 1753.937955 4009.8446850000005 L 1753.937955 4519.6874800000005 L 1244.09516 4519.6874800000005 L 1244.09516 4009.8446850000005 M 1753.937955 4009.8446850000005 L 2263.78075 4009.8446850000005 L 2263.78075 4519.6874800000005 L 1753.937955 4519.6874800000005 L 1753.937955 4009.8446850000005 M 2263.78075 4009.8446850000005 L 2773.623545 4009.8446850000005 L 2773.623545 4519.6874800000005 L 2263.78075 4519.6874800000005 L 2263.78075 4009.8446850000005 M 2773.623545 4009.8446850000005 L 3283.46634 4009.8446850000005 L 3283.46634 4519.6874800000005 L 2773.623545 4519.6874800000005 L 2773.623545 4009.8446850000005 M 224.40957000000006 440.94512000000014 L 734.252365 440.94512000000014 L 734.252365 950.7879150000001 L 224.40957000000006 950.7879150000001 M 224.40957000000006 950.7879150000001 L 224.40957000000006 440.94512000000014 M 224.40957000000006 950.7879150000001 L 734.252365 950.7879150000001 L 734.252365 1460.6307100000001 L 224.40957000000006 1460.6307100000001 M 224.40957000000006 1460.6307100000001 L 224.40957000000006 950.7879150000001 M 224.40957000000006 1460.6307100000001 L 734.252365 1460.6307100000001 L 734.252365 1970.4735050000002 L 224.40957000000006 1970.4735050000002 M 224.40957000000006 1970.4735050000002 L 224.40957000000006 1460.6307100000001 M 224.40957000000006 1970.4735050000002 L 734.252365 1970.4735050000002 L 734.252365 2480.3163 L 224.40957000000006 2480.3163 M 224.40957000000006 2480.3163 L 224.40957000000006 1970.4735050000002 M 224.40957000000006 2480.3163 L 734.252365 2480.3163 L 734.252365 2990.1590950000004 L 224.40957000000006 2990.1590950000004 M 224.40957000000006 2990.1590950000004 L 224.40957000000006 2480.3163 M 224.40957000000006 2990.1590950000004 L 734.252365 2990.1590950000004 L 734.252365 3500.00189 L 224.40957000000006 3500.00189 M 224.40957000000006 3500.00189 L 224.40957000000006 2990.1590950000004 M 224.40957000000006 3500.00189 L 734.252365 3500.00189 L 734.252365 4009.8446850000005 L 224.40957000000006 4009.8446850000005 M 224.40957000000006 4009.8446850000005 L 224.40957000000006 3500.00189 M 224.40957000000006 4009.8446850000005 L 734.252365 4009.8446850000005 L 734.252365 4519.6874800000005 L 224.40957000000006 4519.6874800000005 M 224.40957000000006 4519.6874800000005 L 224.40957000000006 4009.8446850000005 M 567.3549765370211 730.2837364837976 L 456.371828077561 730.2842810256662 L 486.69310217605494 751.7493883911139 L 567.3549765370211 730.2837364837976 M 567.3549765370211 730.2837364837976 L 520.382762180895 636.2042545448055 L 409.4102851865752 636.20331048416 L 456.371828077561 730.2842810256662 L 567.3549765370211 730.2837364837976 M 567.3549765370211 730.2837364837976 L 684.3146348397124 687.0502726631241 L 685.0429429827176 663.9050053907471 L 520.382762180895 636.2042545448055 L 567.3549765370211 730.2837364837976 M 456.371828077561 730.2842810256662 L 307.8300727516978 705.4541120163377 L 486.69310217605494 751.7493883911139 L 456.371828077561 730.2842810256662 M 456.371828077561 730.2842810256662 L 268.1581783562955 687.04974952817 L 307.8300727516978 705.4541120163377 L 456.371828077561 730.2842810256662 M 456.371828077561 730.2842810256662 L 409.4102851865752 636.20331048416 L 241.15466305359993 663.9029823739301 L 268.1581783562955 687.04974952817 L 456.371828077561 730.2842810256662 M 511.43031334329334 730.2840108818485 L 516.1448276559643 734.8129910886312 L 512.2973691906329 730.2840066276153 L 511.43031334329334 730.2840108818485 M 1105.698585730538 695.053560710017 L 1005.8283431555045 695.0535352382433 L 1010.3375454838571 742.1382507199158 L 1105.698585730538 695.053560710017 M 1105.698585730538 695.053560710017 L 1003.9348860783252 653.3480895342075 L 904.0715684349084 653.3467572008484 L 1005.8283431555045 695.0535352382433 L 1105.698585730538 695.053560710017 M 1105.698585730538 695.053560710017 L 1010.3375454838571 742.1382507199158 L 1091.5196320131427 724.9243932342389 L 1105.698585730538 695.053560710017 M 1105.698585730538 695.053560710017 L 1091.5196320131427 724.9243932342389 L 1169.3853520775094 690.5838807826981 L 1105.698585730538 695.053560710017 M 1105.698585730538 695.053560710017 L 1169.3853520775094 690.5838807826981 L 1153.801922404931 681.9795788914084 L 1003.9348860783252 653.3480895342075 L 1105.698585730538 695.053560710017 M 1005.8283431555045 695.0535352382433 L 816.8954692916524 724.9268972904651 L 1010.3375454838571 742.1382507199158 L 1005.8283431555045 695.0535352382433 M 1005.8283431555045 695.0535352382433 L 794.8907279753203 690.5832600219288 L 816.8954692916524 724.9268972904651 L 1005.8283431555045 695.0535352382433 M 1005.8283431555045 695.0535352382433 L 904.0715684349084 653.3467572008484 L 754.3486290227721 681.9778381967873 L 794.8907279753203 690.5832600219288 L 1005.8283431555045 695.0535352382433 M 1010.3375454838571 742.1382507199158 L 816.8954692916524 724.9268972904651 L 954.2658310662034 742.8202053992869 L 1010.3375454838571 742.1382507199158 M 794.8907279753203 690.5832600219288 L 754.3486290227721 681.9778381967873 L 816.8954692916524 724.9268972904651 L 794.8907279753203 690.5832600219288 M 1055.3741285544047 695.0535478746311 L 1056.1543648245222 695.0535480736291 L 1064.5268095393108 694.9465702789199 L 1055.3741285544047 695.0535478746311 M 1631.6213090359765 659.8799551198593 L 1549.6711195729151 659.8783462253765 L 1536.5519929305165 729.3735070691855 L 1631.6213090359765 659.8799551198593 M 1631.6213090359765 659.8799551198593 L 1536.5519929305165 729.3735070691855 L 1568.7601175328098 742.4146105359946 L 1631.6213090359765 659.8799551198593 M 1631.6213090359765 659.8799551198593 L 1568.7601175328098 742.4146105359946 L 1642.0227799998625 694.4772678009294 L 1631.6213090359765 659.8799551198593 M 1549.6711195729151 659.8783462253765 L 1343.3979085283047 742.4203341748781 L 1536.5519929305165 729.3735070691855 L 1549.6711195729151 659.8783462253765 M 1549.6711195729151 659.8783462253765 L 1334.710411054159 694.4770348572675 L 1343.3979085283047 742.4203341748781 L 1549.6711195729151 659.8783462253765 M 1549.6711195729151 659.8783462253765 L 1401.8798018834414 673.387904840113 L 1284.2333329793203 701.0003669269088 L 1334.710411054159 694.4770348572675 L 1549.6711195729151 659.8783462253765 M 1536.5519929305165 729.3735070691855 L 1343.3979085283047 742.4203341748781 L 1459.3935439250738 759.6749019680831 L 1536.5519929305165 729.3735070691855 M 1536.5519929305165 729.3735070691855 L 1459.3935439250738 759.6749019680831 L 1568.7601175328098 742.4146105359946 L 1536.5519929305165 729.3735070691855 M 1334.710411054159 694.4770348572675 L 1284.2333329793203 701.0003669269088 L 1343.3979085283047 742.4203341748781 L 1334.710411054159 694.4770348572675 M 1590.3270123076559 659.879144387874 L 1590.9672481628359 659.8791569573619 L 1602.70450003632 655.1436898457857 L 1590.3270123076559 659.879144387874 M 2139.0251772227803 627.160415856108 L 2080.579276510874 627.1566344066911 L 2060.9494762271693 714.3252201466618 L 2139.0251772227803 627.160415856108 M 2139.0251772227803 627.160415856108 L 2060.9494762271693 714.3252201466618 L 2048.5363811862053 756.732699372305 L 2139.0251772227803 627.160415856108 M 2139.0251772227803 627.160415856108 L 2048.5363811862053 756.732699372305 L 2105.484173838005 698.4651564949698 L 2139.0251772227803 627.160415856108 M 2080.579276510874 627.1566344066911 L 1887.7962670817183 756.7419126265187 L 2060.9494762271693 714.3252201466618 L 2080.579276510874 627.1566344066911 M 2080.579276510874 627.1566344066911 L 1886.2968169072456 698.4656928958462 L 1887.7962670817183 756.7419126265187 L 2080.579276510874 627.1566344066911 M 2060.9494762271693 714.3252201466618 L 1887.7962670817183 756.7419126265187 L 1975.9465779278169 772.181493718149 L 2060.9494762271693 714.3252201466618 M 2060.9494762271693 714.3252201466618 L 1975.9465779278169 772.181493718149 L 2048.5363811862053 756.732699372305 L 2060.9494762271693 714.3252201466618 M 1886.2968169072456 698.4656928958462 L 1832.5984580341044 719.6742008083872 L 1887.7962670817183 756.7419126265187 L 1886.2968169072456 698.4656928958462 M 2109.5747267594024 627.1585103601128 L 2110.031335358714 627.1585399026864 L 2123.0855971524143 618.1176574021009 L 2109.5747267594024 627.1585103601128 M 2626.2171104434747 599.1243749250917 L 2595.2565484415745 599.1184139232561 L 2579.6299525241466 698.0191275205902 L 2626.2171104434747 599.1243749250917 M 2595.2565484415745 599.1184139232561 L 2447.288166433292 766.9150360477202 L 2579.6299525241466 698.0191275205902 L 2595.2565484415745 599.1184139232561 M 2595.2565484415745 599.1184139232561 L 2447.2688212374505 702.277343973913 L 2447.288166433292 766.9150360477202 L 2595.2565484415745 599.1184139232561 M 2595.2565484415745 599.1184139232561 L 2425.3658237567133 716.5970474595429 L 2398.5137281877105 736.7263939406555 L 2447.2688212374505 702.277343973913 L 2595.2565484415745 599.1184139232561 M 2579.6299525241466 698.0191275205902 L 2447.288166433292 766.9150360477202 L 2502.127240695165 779.4872901475023 L 2579.6299525241466 698.0191275205902 M 2579.6299525241466 698.0191275205902 L 2502.127240695165 779.4872901475023 L 2532.4485766387293 766.9029981863196 L 2579.6299525241466 698.0191275205902 M 2447.2688212374505 702.277343973913 L 2398.5137281877105 736.7263939406555 L 2447.288166433292 766.9150360477202 L 2447.2688212374505 702.277343973913 M 2610.616366718287 599.1213711390102 L 2610.8582461089263 599.1214177093373 L 2622.8473936856926 586.391564930322 L 2610.616366718287 599.1213711390102 M 3096.521542459017 577.6814123479778 L 3095.154056893548 577.6738488052099 L 3090.2254629766535 681.566611244521 L 3096.521542459017 577.6814123479778 M 3095.154056893548 577.6738488052099 L 3016.1204230887724 772.2458135645551 L 3090.2254629766535 681.566611244521 L 3095.154056893548 577.6738488052099 M 3095.154056893548 577.6738488052099 L 3014.222644628062 705.6521334220799 L 3016.1204230887724 772.2458135645551 L 3095.154056893548 577.6738488052099 M 3095.154056893548 577.6738488052099 L 2955.1193319904964 736.8205595106497 L 2977.9375731995797 750.994238175972 L 3014.222644628062 705.6521334220799 L 3095.154056893548 577.6738488052099 M 3090.2254629766535 681.566611244521 L 3016.1204230887724 772.2458135645551 L 3033.5577755212157 781.0940589035274 L 3090.2254629766535 681.566611244521 M 3014.222644628062 705.6521334220799 L 2977.9375731995797 750.994238175972 L 3016.1204230887724 772.2458135645551 L 3014.222644628062 705.6521334220799 M 3095.8324798815406 577.6776010315048 L 3095.843163362521 577.6776601216826 L 3104.692152336765 562.1264533183087 L 3095.8324798815406 577.6776010315048 M 498.5191234191553 1074.1344505482018 L 407.3623424368782 1264.0924795009635 L 435.6746656455519 1264.0961001114877 L 526.8367316684614 1074.1262908757092 L 498.5191234191553 1074.1344505482018 M 498.5191234191553 1074.1344505482018 L 417.7032989403083 1218.1998675101388 L 391.7386978597058 1271.331230428796 L 407.3623424368782 1264.0924795009635 L 498.5191234191553 1074.1344505482018 M 526.8367316684614 1074.1262908757092 L 527.5592125918973 1282.2134097680207 L 533.4777502689691 1175.931666880898 L 526.8367316684614 1074.1262908757092 M 526.8367316684614 1074.1262908757092 L 523.8852226677566 1218.2027725175794 L 527.5592125918973 1282.2134097680207 L 526.8367316684614 1074.1262908757092 M 526.8367316684614 1074.1262908757092 L 435.6746656455519 1264.0961001114877 L 504.99421523653353 1271.3475100814146 L 523.8852226677566 1218.2027725175794 L 526.8367316684614 1074.1262908757092 M 523.8852226677566 1218.2027725175794 L 504.99421523653353 1271.3475100814146 L 527.5592125918973 1282.2134097680207 L 523.8852226677566 1218.2027725175794 M 527.5592125918973 1282.2134097680207 L 504.99421523653353 1271.3475100814146 L 435.6746656455519 1264.0961001114877 L 407.3623424368782 1264.0924795009635 L 391.7386978597058 1271.331230428796 L 449.6896253362538 1282.200364133495 L 505.396657022637 1286.7349820818563 L 527.5592125918973 1282.2134097680207 M 512.78810424129 1074.1303388382348 L 517.0651650898964 1056.817445202294 L 512.5668729268422 1074.1304025856762 L 512.78810424129 1074.1303388382348 M 491.12858308292806 1278.5869373081089 L 457.5760039881424 1269.5303314847358 L 438.4779396852219 1267.7173176202398 L 485.4503590016543 1280.3962217756355 L 491.12858308292806 1278.5869373081089 M 459.2737181682203 1278.5818531903506 L 478.37140287324837 1280.3950638902745 L 431.399664366112 1267.71635630478 L 425.7233273890281 1269.5258791988017 L 459.2737181682203 1278.5818531903506 M 487.10992527449685 1272.2501590070322 L 507.24225585383004 1277.6843489738412 L 500.71601335543033 1274.967794710158 L 487.10992527449685 1272.2501590070322 M 416.32474062162515 1272.2398438170737 L 422.85070547250274 1274.9559846578657 L 436.4541534468338 1277.6731913414508 L 416.32474062162515 1272.2398438170737 M 960.4289858229262 1069.709706564265 L 924.0621740046772 1277.5455771479494 L 980.1342447689369 1277.5495860307406 L 1016.5024462211427 1069.7021169059806 L 960.4289858229262 1069.709706564265 M 960.4289858229262 1069.709706564265 L 879.440789925659 1220.0560651971214 L 864.9302607926035 1277.367878159093 L 924.0621740046772 1277.5455771479494 L 960.4289858229262 1069.709706564265 M 1016.5024462211427 1069.7021169059806 L 980.1342447689369 1277.5495860307406 L 1089.2223597820227 1277.3838754881258 L 1089.7157079109525 1220.0590678300837 L 1016.5024462211427 1069.7021169059806 M 1089.7157079109525 1220.0590678300837 L 1089.2223597820227 1277.3838754881258 L 1091.6209026533948 1277.1238040861579 L 1089.7157079109525 1220.0590678300837 M 988.6839707302311 1069.70588208802 L 988.3716667606209 1051.8107229203574 L 988.2458968208701 1069.705941382225 L 988.6839707302311 1069.70588208802 M 1433.2636234222084 1074.5517049542223 L 1442.9281894775136 1286.1029453103806 L 1522.9381278252752 1286.1066268783914 L 1513.2735410641571 1074.5456987185362 L 1433.2636234222084 1074.5517049542223 M 1433.2636234222084 1074.5517049542223 L 1348.0166106144065 1220.934679163176 L 1342.684425106351 1278.5213737509118 L 1442.9281894775136 1286.1029453103806 L 1433.2636234222084 1074.5517049542223 M 1513.2735410641571 1074.5456987185362 L 1522.9381278252752 1286.1066268783914 L 1662.7243478173564 1278.5347123127315 L 1648.0540006571573 1220.937293979121 L 1513.2735410641571 1074.5456987185362 M 1473.5802050531695 1074.548678374521 L 1469.879600395559 1057.2904524196085 L 1472.955127571592 1074.5487252982373 L 1473.5802050531695 1074.548678374521 M 1924.5479342242427 1088.331437806259 L 1959.1512348358008 1289.1813175202271 L 2057.645175467002 1289.1840438900515 L 2023.043953835027 1088.327604124906 L 1924.5479342242427 1088.331437806259 M 1924.5479342242427 1088.331437806259 L 1825.5210473064012 1220.7757972815764 L 1824.034558072562 1274.7129911180327 L 1959.1512348358008 1289.1813175202271 L 1924.5479342242427 1088.331437806259 M 2023.043953835027 1088.327604124906 L 2057.645175467002 1289.1840438900515 L 2218.007289759582 1274.722006883206 L 2194.8729217467962 1220.777642753158 L 2023.043953835027 1088.327604124906 M 1974.1798899139424 1088.3295059902648 L 1969.1812552218003 1072.8842345413323 L 1973.410389760733 1088.3295359409003 L 1974.1798899139424 1088.3295059902648 M 2437.409204954711 1110.1110773493874 L 2469.1751026742522 1286.5710381171132 L 2579.439631820241 1286.5724373493542 L 2547.6801532510967 1110.1094232209562 L 2437.409204954711 1110.1110773493874 M 2437.409204954711 1110.1110773493874 L 2313.694487408662 1219.5901809363972 L 2309.2286950197063 1266.2021164118494 L 2469.1751026742522 1286.5710381171132 L 2437.409204954711 1110.1110773493874 M 2547.6801532510967 1110.1094232209562 L 2579.439631820241 1286.5724373493542 L 2750.28241280895 1266.2063036386 L 2727.189406056083 1219.5910816810479 L 2547.6801532510967 1110.1094232209562 M 2492.9749480236737 1110.1102438237326 L 2489.102164484896 1097.5306855150548 L 2492.113456240108 1110.110256746611 L 2492.9749480236737 1110.1102438237326 M 2969.86398843858 1138.4072159113564 L 2971.7752836638747 1278.4502398961897 L 3086.295647762338 1278.4502956578774 L 3084.3945346760374 1138.4071643235516 L 2969.86398843858 1138.4072159113564 M 2969.86398843858 1138.4072159113564 L 2813.933022063584 1217.4585461493336 L 2800.166567317278 1253.5685253789002 L 2971.7752836638747 1278.4502398961897 L 2969.86398843858 1138.4072159113564 M 3084.3945346760374 1138.4071643235516 L 3086.295647762338 1278.4502956578774 L 3258.2443977611424 1253.5686721317538 L 3243.3918656804367 1217.4585799239774 L 3084.3945346760374 1138.4071643235516 M 3027.576624557662 1138.407189915939 L 3026.94294899478 1129.5509859809258 L 3026.681854665182 1138.4071903189686 L 3027.576624557662 1138.407189915939 M 456.371840191728 1681.1343397915298 L 567.3549861749858 1681.1348843336511 L 486.69310425937437 1659.66923566241 L 456.371840191728 1681.1343397915298 M 456.371840191728 1681.1343397915298 L 409.41028194725493 1775.2153163719006 L 520.3827564665596 1775.2143723109023 L 567.3549861749858 1681.1348843336511 L 456.371840191728 1681.1343397915298 M 456.371840191728 1681.1343397915298 L 486.69310425937437 1659.66923566241 L 307.8300695986955 1705.9645154151303 L 456.371840191728 1681.1343397915298 M 456.371840191728 1681.1343397915298 L 307.8300695986955 1705.9645154151303 L 268.15818200671265 1724.3688758690087 L 456.371840191728 1681.1343397915298 M 456.371840191728 1681.1343397915298 L 268.15818200671265 1724.3688758690087 L 241.1546626933355 1747.5156447125926 L 409.41028194725493 1775.2153163719006 L 456.371840191728 1681.1343397915298 M 567.3549861749858 1681.1348843336511 L 520.3827564665596 1775.2143723109023 L 685.0429327223485 1747.5136216949504 L 684.3146292075585 1724.3683527338517 L 567.3549861749858 1681.1348843336511 M 512.2973800571666 1681.134614189708 L 516.1448399633554 1676.6056291783054 L 511.4303242291724 1681.1346099354726 L 512.2973800571666 1681.134614189708 M 1005.828338483353 1716.3650935454273 L 1105.6985828412385 1716.3650680735368 L 1010.3375449159718 1669.280375482545 L 1005.828338483353 1716.3650935454273 M 1005.828338483353 1716.3650935454273 L 904.0715689558446 1758.0718658007181 L 1003.9348883813528 1758.0705334674974 L 1105.6985828412385 1716.3650680735368 L 1005.828338483353 1716.3650935454273 M 1005.828338483353 1716.3650935454273 L 1010.3375449159718 1669.280375482545 L 816.8954692163336 1686.4917257231148 L 1005.828338483353 1716.3650935454273 M 1005.828338483353 1716.3650935454273 L 816.8954692163336 1686.4917257231148 L 794.8907249596137 1720.835364578891 L 1005.828338483353 1716.3650935454273 M 1005.828338483353 1716.3650935454273 L 794.8907249596137 1720.835364578891 L 754.3486272561595 1729.4407848094745 L 904.0715689558446 1758.0718658007181 L 1005.828338483353 1716.3650935454273 M 1105.6985828412385 1716.3650680735368 L 1091.5196368387615 1686.4942297793705 L 1010.3375449159718 1669.280375482545 L 1105.6985828412385 1716.3650680735368 M 1105.6985828412385 1716.3650680735368 L 1169.3853557455236 1720.8347438182036 L 1091.5196368387615 1686.4942297793705 L 1105.6985828412385 1716.3650680735368 M 1105.6985828412385 1716.3650680735368 L 1003.9348883813528 1758.0705334674974 L 1153.801927766792 1729.4390441152018 L 1169.3853557455236 1720.8347438182036 L 1105.6985828412385 1716.3650680735368 M 1010.3375449159718 1669.280375482545 L 954.2658336818664 1668.5984176172758 L 816.8954692163336 1686.4917257231148 L 1010.3375449159718 1669.280375482545 M 794.8907249596137 1720.835364578891 L 816.8954692163336 1686.4917257231148 L 754.3486272561595 1729.4407848094745 L 794.8907249596137 1720.835364578891 M 1056.1543610507306 1716.3650807099825 L 1055.3741247666846 1716.3650809089813 L 1064.5268052610616 1716.4720590025734 L 1056.1543610507306 1716.3650807099825 M 1549.6711305760234 1751.5402824233856 L 1631.6213130429219 1751.5386735285954 L 1536.5519969426339 1682.0451194255472 L 1549.6711305760234 1751.5402824233856 M 1549.6711305760234 1751.5402824233856 L 1536.5519969426339 1682.0451194255472 L 1343.3979152054455 1668.9982891151167 L 1549.6711305760234 1751.5402824233856 M 1549.6711305760234 1751.5402824233856 L 1343.3979152054455 1668.9982891151167 L 1334.7104231893609 1716.9415897191334 L 1549.6711305760234 1751.5402824233856 M 1549.6711305760234 1751.5402824233856 L 1334.7104231893609 1716.9415897191334 L 1284.2333425117247 1710.4182560472298 L 1401.87979991458 1738.0307179235776 L 1549.6711305760234 1751.5402824233856 M 1631.6213130429219 1751.5386735285954 L 1568.7601049764378 1669.0040127547227 L 1536.5519969426339 1682.0451194255472 L 1631.6213130429219 1751.5386735285954 M 1631.6213130429219 1751.5386735285954 L 1642.0227659055995 1716.9413567755219 L 1568.7601049764378 1669.0040127547227 L 1631.6213130429219 1751.5386735285954 M 1536.5519969426339 1682.0451194255472 L 1568.7601049764378 1669.0040127547227 L 1459.3935416170366 1651.7437214539364 L 1536.5519969426339 1682.0451194255472 M 1536.5519969426339 1682.0451194255472 L 1459.3935416170366 1651.7437214539364 L 1343.3979152054455 1668.9982891151167 L 1536.5519969426339 1682.0451194255472 M 1334.7104231893609 1716.9415897191334 L 1343.3979152054455 1668.9982891151167 L 1284.2333425117247 1710.4182560472298 L 1334.7104231893609 1716.9415897191334 M 1590.967255640538 1751.5394716912454 L 1590.3270198400153 1751.539484260736 L 1602.704508528847 1756.274939282905 L 1590.967255640538 1751.5394716912454 M 2080.5792713975347 1784.2619938587377 L 2139.025175240697 1784.258212409212 L 2060.9494756862264 1697.0934065383108 L 2080.5792713975347 1784.2619938587377 M 2080.5792713975347 1784.2619938587377 L 2060.9494756862264 1697.0934065383108 L 1887.79626500069 1654.6767110573576 L 2080.5792713975347 1784.2619938587377 M 2080.5792713975347 1784.2619938587377 L 1887.79626500069 1654.6767110573576 L 1886.296811343346 1712.9529316849705 L 2080.5792713975347 1784.2619938587377 M 2139.025175240697 1784.258212409212 L 2048.536387714209 1654.6859243115962 L 2060.9494756862264 1697.0934065383108 L 2139.025175240697 1784.258212409212 M 2139.025175240697 1784.258212409212 L 2105.484180014312 1712.953468085923 L 2048.536387714209 1654.6859243115962 L 2139.025175240697 1784.258212409212 M 2060.9494756862264 1697.0934065383108 L 2048.536387714209 1654.6859243115962 L 1975.9465803743294 1639.2371302171994 L 2060.9494756862264 1697.0934065383108 M 2060.9494756862264 1697.0934065383108 L 1975.9465803743294 1639.2371302171994 L 1887.79626500069 1654.6767110573576 L 2060.9494756862264 1697.0934065383108 M 1886.296811343346 1712.9529316849705 L 1887.79626500069 1654.6767110573576 L 1832.5984534616025 1691.7444222718088 L 1886.296811343346 1712.9529316849705 M 2110.031331823262 1784.2600883626876 L 2109.5747231994874 1784.2601179052617 L 2123.0855931379315 1793.300971292957 L 2110.031331823262 1784.2600883626876 M 2595.2565432763877 1812.300213736206 L 2626.217108783598 1812.2942527342598 L 2579.6299520379885 1713.3994992398714 L 2595.2565432763877 1812.300213736206 M 2595.2565432763877 1812.300213736206 L 2579.6299520379885 1713.3994992398714 L 2447.2881637738583 1644.5035881192523 L 2595.2565432763877 1812.300213736206 M 2595.2565432763877 1812.300213736206 L 2447.2881637738583 1644.5035881192523 L 2447.268814956 1709.1412806398976 L 2595.2565432763877 1812.300213736206 M 2579.6299520379885 1713.3994992398714 L 2532.448583617466 1644.5156259806863 L 2502.12724308266 1631.9313343735735 L 2579.6299520379885 1713.3994992398714 M 2579.6299520379885 1713.3994992398714 L 2502.12724308266 1631.9313343735735 L 2447.2881637738583 1644.5035881192523 L 2579.6299520379885 1713.3994992398714 M 2447.268814956 1709.1412806398976 L 2447.2881637738583 1644.5035881192523 L 2398.5137227915097 1674.6922293763407 L 2447.268814956 1709.1412806398976 M 2610.8582427101373 1812.297209950069 L 2610.6163632921116 1812.2972565203968 L 2622.847389824209 1825.0270630790303 L 2610.8582427101373 1812.297209950069 M 3095.1540588044672 1833.7447740557054 L 3096.5215480099882 1833.7372105130776 L 3090.225463407748 1729.852011794746 L 3095.1540588044672 1833.7447740557054 M 3095.1540588044672 1833.7447740557054 L 3090.225463407748 1729.852011794746 L 3016.120415659298 1639.1728117704579 L 3095.1540588044672 1833.7447740557054 M 3095.1540588044672 1833.7447740557054 L 3016.120415659298 1639.1728117704579 L 3014.2226374951565 1705.7664919514373 L 3095.1540588044672 1833.7447740557054 M 3095.1540588044672 1833.7447740557054 L 3014.2226374951565 1705.7664919514373 L 2977.9375641841552 1660.4243883455993 L 2955.1193288963955 1674.5980678017113 L 3095.1540588044672 1833.7447740557054 M 3090.225463407748 1729.852011794746 L 3033.5577728104163 1630.3245659371148 L 3016.120415659298 1639.1728117704579 L 3090.225463407748 1729.852011794746 M 3014.2226374951565 1705.7664919514373 L 3016.120415659298 1639.1728117704579 L 2977.9375641841552 1660.4243883455993 L 3014.2226374951565 1705.7664919514373 M 3095.8431671077424 1833.740962739303 L 3095.8324835983244 1833.74102182948 L 3104.692156558702 1849.2921692612485 L 3095.8431671077424 1833.740962739303 M 526.836734227847 2356.9779230303634 L 435.67466161454155 2167.0081167851476 L 407.3623419336202 2167.0117373955836 L 498.5191295057707 2356.9697633578726 L 526.836734227847 2356.9779230303634 M 526.836734227847 2356.9779230303634 L 533.4777516253095 2255.172546342848 L 527.5592054602375 2148.8908049271004 L 526.836734227847 2356.9779230303634 M 526.836734227847 2356.9779230303634 L 527.5592054602375 2148.8908049271004 L 523.8852155988054 2212.901442762691 L 526.836734227847 2356.9779230303634 M 526.836734227847 2356.9779230303634 L 523.8852155988054 2212.901442762691 L 504.9942059077203 2159.7567059346807 L 435.67466161454155 2167.0081167851476 L 526.836734227847 2356.9779230303634 M 498.5191295057707 2356.9697633578726 L 407.3623419336202 2167.0117373955836 L 391.7387026417382 2159.7729855871794 L 417.7033050997499 2212.90434777009 L 498.5191295057707 2356.9697633578726 M 523.8852155988054 2212.901442762691 L 527.5592054602375 2148.8908049271004 L 504.9942059077203 2159.7567059346807 L 523.8852155988054 2212.901442762691 M 449.68962790563086 2148.9038505617846 L 391.7387026417382 2159.7729855871794 L 407.3623419336202 2167.0117373955836 L 435.67466161454155 2167.0081167851476 L 504.9942059077203 2159.7567059346807 L 527.5592054602375 2148.8908049271004 L 505.3966547384908 2144.369232062996 L 449.68962790563086 2148.9038505617846 M 512.5668772636723 2356.973811320397 L 517.065169981768 2374.2867685598426 L 512.7881085505635 2356.9738750678384 L 512.5668772636723 2356.973811320397 M 459.27371787443604 2152.5223619451444 L 425.7233271021045 2161.5783370373474 L 431.3996625372441 2163.387860151526 L 478.37140103480743 2150.7091510250707 L 459.27371787443604 2152.5223619451444 M 491.12857882051463 2152.5172778273545 L 485.4503562812983 2150.7079931396993 L 438.4779369744213 2163.386898836081 L 457.5759997325318 2161.5738847514635 L 491.12857882051463 2152.5172778273545 M 416.3247427576821 2158.864372088864 L 436.4541555787559 2153.4310239041242 L 422.8507080473847 2156.1482309178905 L 416.3247427576821 2158.864372088864 M 487.10991859128785 2158.854056898962 L 500.7160062291622 2156.1364208656005 L 507.24224916656334 2153.419866271681 L 487.10991859128785 2158.854056898962 M 1016.5024483908542 2361.402098119766 L 980.134240528783 2153.554630320861 L 924.0621729391295 2153.558639203648 L 960.4289911668787 2361.3945084613447 L 1016.5024483908542 2361.402098119766 M 1016.5024483908542 2361.402098119766 L 1089.7157014785994 2211.045147337835 L 1089.222351230051 2153.720339953214 L 980.134240528783 2153.554630320861 L 1016.5024483908542 2361.402098119766 M 960.4289911668787 2361.3945084613447 L 924.0621729391295 2153.558639203648 L 864.9302649386575 2153.736337282434 L 879.4407953973656 2211.0481499708158 L 960.4289911668787 2361.3945084613447 M 1089.7157014785994 2211.045147337835 L 1091.6208967614991 2153.9804099898847 L 1089.222351230051 2153.720339953214 L 1089.7157014785994 2211.045147337835 M 988.2459005901319 2361.3982736434523 L 988.3716710118076 2379.2934921086744 L 988.6839744746941 2361.3983329376583 L 988.2459005901319 2361.3982736434523 M 1513.27354194572 2356.5585174251796 L 1522.9381241950825 2144.997588836041 L 1442.9281884523205 2145.0012704041333 L 1433.2636269088152 2356.5525111892543 L 1513.27354194572 2356.5585174251796 M 1513.27354194572 2356.5585174251796 L 1648.0539953957623 2210.1669210650034 L 1662.7243410653641 2152.569502523799 L 1522.9381241950825 2144.997588836041 L 1513.27354194572 2356.5585174251796 M 1433.2636269088152 2356.5525111892543 L 1442.9281884523205 2145.0012704041333 L 1342.6844287739054 2152.582841086063 L 1348.0166151214253 2210.169535881022 L 1433.2636269088152 2356.5525111892543 M 1472.9551297658543 2356.555490845358 L 1469.8796028670379 2373.813763874422 L 1473.58020722708 2356.555537769076 L 1472.9551297658543 2356.555490845358 M 2023.0439598892935 2342.7766089638385 L 2057.6451792748967 2141.92017108506 L 1959.1512335339396 2141.9228974544835 L 1924.5479351679157 2342.7727752831133 L 2023.0439598892935 2342.7766089638385 M 2023.0439598892935 2342.7766089638385 L 2194.87293134507 2210.3265723192835 L 2218.0072991673574 2156.382208779824 L 2057.6451792748967 2141.92017108506 L 2023.0439598892935 2342.7766089638385 M 1924.5479351679157 2342.7727752831133 L 1959.1512335339396 2141.9228974544835 L 1824.0345470422362 2156.391224543583 L 1825.521037743001 2210.328417790585 L 1924.5479351679157 2342.7727752831133 M 1973.4103932398161 2342.7746771481607 L 1969.1812591812477 2358.219978296334 L 1974.179893432952 2342.774707098791 L 1973.4103932398161 2342.7746771481607 M 2547.680149079156 2320.9947890878366 L 2579.43963257067 2144.5317782273296 L 2469.175104409054 2144.533177459719 L 2437.409201767124 2320.9931349592653 L 2547.680149079156 2320.9947890878366 M 2547.680149079156 2320.9947890878366 L 2727.1894045117856 2211.513133497226 L 2750.282412546383 2164.8979124977363 L 2579.43963257067 2144.5317782273296 L 2547.680149079156 2320.9947890878366 M 2437.409201767124 2320.9931349592653 L 2469.175104409054 2144.533177459719 L 2309.2286986943377 2164.9020997248826 L 2313.694489555496 2211.5140342419672 L 2437.409201767124 2320.9931349592653 M 2492.1134525641396 2320.9939555621118 L 2489.102160320864 2333.5735264395453 L 2492.9749443400146 2320.9939684849905 L 2492.1134525641396 2320.9939555621118 M 3084.3945450458273 2292.697047388325 L 3086.295644266442 2152.6539204816145 L 2971.775280048193 2152.653976242894 L 2969.8639986882927 2292.6969958008985 L 3084.3945450458273 2292.697047388325 M 3084.3945450458273 2292.697047388325 L 3243.3918650516 2213.6456353483327 L 3258.2443931958687 2177.5355444021293 L 3086.295644266442 2152.6539204816145 L 3084.3945450458273 2292.697047388325 M 2969.8639986882927 2292.6969958008985 L 2971.775280048193 2152.653976242894 L 2800.166562272699 2177.535691153907 L 2813.9330209851123 2213.6456691227286 L 2969.8639986882927 2292.6969958008985 M 3026.681864974624 2292.697021393098 L 3026.9429606613603 2301.5532252984954 L 3027.576634868042 2292.697021796125 L 3026.681864974624 2292.697021393098 M 567.3549828090569 2769.6549170058906 L 456.3718359254319 2769.6554615478863 L 486.69310372655053 2791.120568509266 L 567.3549828090569 2769.6549170058906 M 567.3549828090569 2769.6549170058906 L 520.3827583043917 2675.5754343131916 L 409.4102828852379 2675.5744902523365 L 456.3718359254319 2769.6554615478863 L 567.3549828090569 2769.6549170058906 M 567.3549828090569 2769.6549170058906 L 684.3146312199249 2726.4214526136084 L 685.0429363244223 2703.276185130523 L 520.3827583043917 2675.5754343131916 L 567.3549828090569 2769.6549170058906 M 456.3718359254319 2769.6554615478863 L 307.83007078364113 2744.825291712823 L 486.69310372655053 2791.120568509266 L 456.3718359254319 2769.6554615478863 M 456.3718359254319 2769.6554615478863 L 268.1581806440098 2726.420929478538 L 307.83007078364113 2744.825291712823 L 456.3718359254319 2769.6554615478863 M 456.3718359254319 2769.6554615478863 L 409.4102828852379 2675.5744902523365 L 241.1546626958943 2703.2741621132486 L 268.1581806440098 2726.420929478538 L 456.3718359254319 2769.6554615478863 M 511.4303204094915 2769.6551914040056 L 516.1448356450295 2774.184171679493 L 512.29737624452 2769.6551871497713 L 511.4303204094915 2769.6551914040056 M 1105.698579975665 2734.424741249753 L 1005.8283338349264 2734.424715777999 L 1010.3375429977598 2781.5094308914886 L 1105.698579975665 2734.424741249753 M 1105.698579975665 2734.424741249753 L 1003.9348919251678 2692.719269249118 L 904.071570717484 2692.717936915901 L 1005.8283338349264 2734.424715777999 L 1105.698579975665 2734.424741249753 M 1105.698579975665 2734.424741249753 L 1010.3375429977598 2781.5094308914886 L 1091.5196408163292 2764.295572950985 L 1105.698579975665 2734.424741249753 M 1105.698579975665 2734.424741249753 L 1091.5196408163292 2764.295572950985 L 1169.3853595677228 2729.955060725729 L 1105.698579975665 2734.424741249753 M 1105.698579975665 2734.424741249753 L 1169.3853595677228 2729.955060725729 L 1153.8019335339668 2721.350758606956 L 1003.9348919251678 2692.719269249118 L 1105.698579975665 2734.424741249753 M 1005.8283338349264 2734.424715777999 L 816.8954682931226 2764.2980770069034 L 1010.3375429977598 2781.5094308914886 L 1005.8283338349264 2734.424715777999 M 1005.8283338349264 2734.424715777999 L 794.8907220980535 2729.954439965023 L 816.8954682931226 2764.2980770069034 L 1005.8283338349264 2734.424715777999 M 1005.8283338349264 2734.424715777999 L 904.071570717484 2692.717936915901 L 754.3486258947509 2721.349017912496 L 794.8907220980535 2729.954439965023 L 1005.8283338349264 2734.424715777999 M 1010.3375429977598 2781.5094308914886 L 816.8954682931226 2764.2980770069034 L 954.2658349273785 2782.191385116278 L 1010.3375429977598 2781.5094308914886 M 794.8907220980535 2729.954439965023 L 754.3486258947509 2721.349017912496 L 816.8954682931226 2764.2980770069034 L 794.8907220980535 2729.954439965023 M 1055.3741210026901 2734.4247284143776 L 1056.1543573006645 2734.424728613375 L 1064.5268010096597 2734.31775088969 L 1055.3741210026901 2734.4247284143776 M 1631.6213121308845 2699.251135640508 L 1549.671127120213 2699.249526745957 L 1536.5519949765487 2768.7446872823675 L 1631.6213121308845 2699.251135640508 M 1631.6213121308845 2699.251135640508 L 1536.5519949765487 2768.7446872823675 L 1568.7601088371207 2781.785790292035 L 1631.6213121308845 2699.251135640508 M 1631.6213121308845 2699.251135640508 L 1568.7601088371207 2781.785790292035 L 1642.0227710512415 2733.8484477405154 L 1631.6213121308845 2699.251135640508 M 1549.671127120213 2699.249526745957 L 1343.3979120729182 2781.791513931214 L 1536.5519949765487 2768.7446872823675 L 1549.671127120213 2699.249526745957 M 1549.671127120213 2699.249526745957 L 1334.710418798093 2733.8482147968307 L 1343.3979120729182 2781.791513931214 L 1549.671127120213 2699.249526745957 M 1549.671127120213 2699.249526745957 L 1401.87980097075 2712.7590845210107 L 1284.2333389680716 2740.371546637953 L 1334.710418798093 2733.8482147968307 L 1549.671127120213 2699.249526745957 M 1536.5519949765487 2768.7446872823675 L 1343.3979120729182 2781.791513931214 L 1459.393541490207 2799.0460817430735 L 1536.5519949765487 2768.7446872823675 M 1536.5519949765487 2768.7446872823675 L 1459.393541490207 2799.0460817430735 L 1568.7601088371207 2781.785790292035 L 1536.5519949765487 2768.7446872823675 M 1334.710418798093 2733.8482147968307 L 1284.2333389680716 2740.371546637953 L 1343.3979120729182 2781.791513931214 L 1334.710418798093 2733.8482147968307 M 1590.3270176461535 2699.250324908488 L 1590.9672534665494 2699.2503374779776 L 1602.7045060575745 2694.5148704349217 L 1590.3270176461535 2699.250324908488 M 2139.0251767805353 2666.531596321579 L 2080.5792698062432 2666.52781487233 L 2060.949474199103 2753.6964003870667 L 2139.0251767805353 2666.531596321579 M 2139.0251767805353 2666.531596321579 L 2060.949474199103 2753.6964003870667 L 2048.5363911222635 2796.10387918465 L 2139.0251767805353 2666.531596321579 M 2139.0251767805353 2666.531596321579 L 2048.5363911222635 2796.10387918465 L 2105.4841860574134 2737.8363364351917 L 2139.0251767805353 2666.531596321579 M 2080.5792698062432 2666.52781487233 L 1887.7962597994074 2796.113092438487 L 2060.949474199103 2753.6964003870667 L 2080.5792698062432 2666.52781487233 M 2080.5792698062432 2666.52781487233 L 1886.2968056462223 2737.836872836036 L 1887.7962597994074 2796.113092438487 L 2080.5792698062432 2666.52781487233 M 2060.949474199103 2753.6964003870667 L 1887.7962597994074 2796.113092438487 L 1975.9465789090953 2811.5526735661765 L 2060.949474199103 2753.6964003870667 M 2060.949474199103 2753.6964003870667 L 1975.9465789090953 2811.5526735661765 L 2048.5363911222635 2796.10387918465 L 2060.949474199103 2753.6964003870667 M 1886.2968056462223 2737.836872836036 L 1832.598447668827 2759.045380534359 L 1887.7962597994074 2796.113092438487 L 1886.2968056462223 2737.836872836036 M 2109.574723161558 2666.529690825669 L 2110.0313318097947 2666.529720368241 L 2123.0855931088877 2657.4888379288777 L 2109.574723161558 2666.529690825669 M 2626.2171091833357 2638.4955553047557 L 2595.256553316581 2638.4895943028505 L 2579.6299534677596 2737.390307771724 L 2626.2171091833357 2638.4955553047557 M 2595.256553316581 2638.4895943028505 L 2447.288174147187 2806.28621592903 L 2579.6299534677596 2737.390307771724 L 2595.256553316581 2638.4895943028505 M 2595.256553316581 2638.4895943028505 L 2447.2688325079657 2741.648523918834 L 2447.288174147187 2806.28621592903 L 2595.256553316581 2638.4895943028505 M 2595.256553316581 2638.4895943028505 L 2425.365825528285 2755.968227138701 L 2398.513739391986 2776.0975737007075 L 2447.2688325079657 2741.648523918834 L 2595.256553316581 2638.4895943028505 M 2579.6299534677596 2737.390307771724 L 2447.288174147187 2806.28621592903 L 2502.127240116706 2818.858470079221 L 2579.6299534677596 2737.390307771724 M 2579.6299534677596 2737.390307771724 L 2502.127240116706 2818.858470079221 L 2532.4485674823545 2806.274178067461 L 2579.6299534677596 2737.390307771724 M 2447.2688325079657 2741.648523918834 L 2398.513739391986 2776.0975737007075 L 2447.288174147187 2806.28621592903 L 2447.2688325079657 2741.648523918834 M 2610.6163685495985 2638.4925515186396 L 2610.8582478923076 2638.492598088967 L 2622.847395730814 2625.762745359944 L 2610.6163685495985 2638.4925515186396 M 3096.5215465170795 2617.0525926147457 L 3095.154053671056 2617.045029072001 L 3090.2254629865624 2720.937791489279 L 3096.5215465170795 2617.0525926147457 M 3095.154053671056 2617.045029072001 L 3016.1204127820565 2811.616993522699 L 3090.2254629865624 2720.937791489279 L 3095.154053671056 2617.045029072001 M 3095.154053671056 2617.045029072001 L 3014.2226309454772 2745.0233133754436 L 3016.1204127820565 2811.616993522699 L 3095.154053671056 2617.045029072001 M 3095.154053671056 2617.045029072001 L 2955.1193282431695 2776.191739221863 L 2977.9375584543636 2790.3654179859186 L 3014.2226309454772 2745.0233133754436 L 3095.154053671056 2617.045029072001 M 3090.2254629865624 2720.937791489279 L 3016.1204127820565 2811.616993522699 L 3033.557775179209 2820.465238923436 L 3090.2254629865624 2720.937791489279 M 3014.2226309454772 2745.0233133754436 L 2977.9375584543636 2790.3654179859186 L 3016.1204127820565 2811.616993522699 L 3014.2226309454772 2745.0233133754436 M 3095.8324802710026 2617.048781298284 L 3095.843163808862 2617.0488403884624 L 3104.692152809678 2601.4976336201485 L 3095.8324802710026 2617.048781298284 M 498.519120364681 3113.5056306848574 L 407.36233994582193 3303.46365926433 L 435.6746693289634 3303.467279874788 L 526.836734788176 3113.4974710124884 L 498.519120364681 3113.5056306848574 M 498.519120364681 3113.5056306848574 L 417.70328743798194 3257.5710474751795 L 391.73868569966663 3310.702410302149 L 407.36233994582193 3303.46365926433 L 498.519120364681 3113.5056306848574 M 526.836734788176 3113.4974710124884 L 527.5592206561075 3321.584589805961 L 533.4777496147259 3215.302847102708 L 526.836734788176 3113.4974710124884 M 526.836734788176 3113.4974710124884 L 523.8852343190717 3257.5739524825703 L 527.5592206561075 3321.584589805961 L 526.836734788176 3113.4974710124884 M 526.836734788176 3113.4974710124884 L 435.6746693289634 3303.467279874788 L 504.9942277739806 3310.718689954505 L 523.8852343190717 3257.5739524825703 L 526.836734788176 3113.4974710124884 M 523.8852343190717 3257.5739524825703 L 504.9942277739806 3310.718689954505 L 527.5592206561075 3321.584589805961 L 523.8852343190717 3257.5739524825703 M 527.5592206561075 3321.584589805961 L 504.9942277739806 3310.718689954505 L 435.6746693289634 3303.467279874788 L 407.36233994582193 3303.46365926433 L 391.73868569966663 3310.702410302149 L 449.6896164213386 3321.571544171614 L 505.3966563410375 3326.1061621885465 L 527.5592206561075 3321.584589805961 M 512.7881042979386 3113.501518974953 L 517.0651651267023 3096.1886253570224 L 512.566872935255 3113.501582722393 L 512.7881042979386 3113.501518974953 M 491.1285863344861 3317.9581172911685 L 457.5760077508331 3308.90151133045 L 438.4779408487154 3307.088497438511 L 485.4503594496353 3319.7674017861905 L 491.1285863344861 3317.9581172911685 M 459.2737144737184 3317.9530331734836 L 478.3714017776666 3319.766243900846 L 431.3996639860003 3307.0875361230674 L 425.7233242055241 3308.8970590445892 L 459.2737144737184 3317.9530331734836 M 487.10993312917276 3311.6213388939073 L 507.24226340177285 3317.0555289431227 L 500.7160218286503 3314.3389746382286 L 487.10993312917276 3311.6213388939073 M 416.3247330404023 3311.611023704112 L 422.85069696633354 3314.3271645861164 L 436.4541455590581 3317.044371310895 L 416.3247330404023 3311.611023704112 M 960.4289894425432 3109.080886561198 L 924.0621756071603 3316.916756979054 L 980.1342400223506 3316.9207658619794 L 1016.5024434920074 3109.073296902642 L 960.4289894425432 3109.080886561198 M 960.4289894425432 3109.080886561198 L 879.4408016147328 3259.4272451761035 L 864.9302728091237 3316.7390581036743 L 924.0621756071603 3316.916756979054 L 960.4289894425432 3109.080886561198 M 1016.5024434920074 3109.073296902642 L 980.1342400223506 3316.9207658619794 L 1089.2223464030606 3316.7550554332656 L 1089.7156957920138 3259.430247809168 L 1016.5024434920074 3109.073296902642 M 1089.7156957920138 3259.430247809168 L 1089.2223464030606 3316.7550554332656 L 1091.6208945810663 3316.4949842017527 L 1089.7156957920138 3259.430247809168 M 988.6839711507326 3109.077062084816 L 988.3716672645146 3091.1819029167373 L 988.2458972909712 3109.0771213790235 L 988.6839711507326 3109.077062084816 M 1433.263624801528 3113.9228848117527 L 1442.928190855911 3325.4741252210274 L 1522.9381239936808 3325.477806789262 L 1513.2735372333766 3113.916878575687 L 1433.263624801528 3113.9228848117527 M 1433.263624801528 3113.9228848117527 L 1348.016620277839 3260.3058591575814 L 1342.6844355470605 3317.8925537708856 L 1442.928190855911 3325.4741252210274 L 1433.263624801528 3113.9228848117527 M 1513.2735372333766 3113.916878575687 L 1522.9381239936808 3325.477806789262 L 1662.7243374189989 3317.905892333537 L 1648.053990783767 3260.3084739736887 L 1513.2735372333766 3113.916878575687 M 1473.5802038070904 3113.9198582318604 L 1469.8795990085532 3096.6616322582004 L 1472.9551263662163 3113.9199051555797 L 1473.5802038070904 3113.9198582318604 M 1924.5479361231037 3127.7026175333235 L 1959.151233084046 3328.5524975167777 L 2057.6451769671758 3328.555223886346 L 2023.0439589862156 3127.698783852321 L 1924.5479361231037 3127.7026175333235 M 1924.5479361231037 3127.7026175333235 L 1825.5210410535437 3260.1469772919754 L 1824.0345502894966 3314.084171212901 L 1959.151233084046 3328.5524975167777 L 1924.5479361231037 3127.7026175333235 M 2023.0439589862156 3127.698783852321 L 2057.6451769671758 3328.555223886346 L 2218.007294983605 3314.0931869772407 L 2194.872927688557 3260.1488227633854 L 2023.0439589862156 3127.698783852321 M 1974.1798934517203 3127.7006857175056 L 1969.1812592107121 3112.2554142326658 L 1973.4103932731023 3127.7007156681384 L 1974.1798934517203 3127.7006857175056 M 2437.429609544652 3149.505392739676 L 2469.1681999086377 3325.937258631613 L 2579.4433171352302 3325.9386560731127 L 2547.71115090532 3149.5037410267437 L 2437.429609544652 3149.505392739676 M 2437.429609544652 3149.505392739676 L 2313.6734094519898 3258.959828267759 L 2309.1979569136265 3305.5635274855968 L 2469.1681999086377 3325.937258631613 L 2437.429609544652 3149.505392739676 M 2547.71115090532 3149.5037410267437 L 2579.4433171352302 3325.9386560731127 L 2750.2940262558323 3305.567708934519 L 2727.2080379089102 3258.960727815442 L 2547.71115090532 3149.5037410267437 M 2493.0006910603724 3149.5045604312063 L 2489.131248071391 3136.928046335485 L 2492.1391165184923 3149.5045733352135 L 2493.0006910603724 3149.5045604312063 M 2969.9040251592683 3177.80665376532 L 2971.761237448438 3317.811627543777 L 3086.2820632571024 3317.8116817046707 L 3084.4350354133776 3177.806603672782 L 2969.9040251592683 3177.80665376532 M 2969.9040251592683 3177.80665376532 L 2813.92882939067 3256.827387124324 L 2800.1469000191883 3292.926528505855 L 2971.761237448438 3317.811627543777 L 2969.9040251592683 3177.80665376532 M 3084.4350354133776 3177.806603672782 L 3086.2820632571024 3317.8116817046707 L 3258.22657876774 3292.9266710256966 L 3243.3894080401374 3256.827419927257 L 3084.4350354133776 3177.806603672782 M 3027.6168957263035 3177.806628523377 L 3026.9885173444186 3168.9541430047257 L 3026.722122208693 3177.8066289147255 L 3027.6168957263035 3177.806628523377 M 456.4223528696896 3720.5369797224002 L 567.3958008172342 3720.5375244963625 L 486.70628450130135 3699.0475360529786 L 456.4223528696896 3720.5369797224002 M 456.4223528696896 3720.5369797224002 L 409.39224168589203 3814.572537338321 L 520.355020895669 3814.5715922324675 L 567.3958008172342 3720.5375244963625 L 456.4223528696896 3720.5369797224002 M 456.4223528696896 3720.5369797224002 L 486.70628450130135 3699.0475360529786 L 307.8186008733188 3745.317407402527 L 456.4223528696896 3720.5369797224002 M 456.4223528696896 3720.5369797224002 L 307.8186008733188 3745.317407402527 L 268.1716901051889 3763.7370694306487 L 456.4223528696896 3720.5369797224002 M 456.4223528696896 3720.5369797224002 L 268.1716901051889 3763.7370694306487 L 241.15039352093703 3786.8711350575213 L 409.39224168589203 3814.572537338321 L 456.4223528696896 3720.5369797224002 M 567.3958008172342 3720.5375244963625 L 520.355020895669 3814.5715922324675 L 684.9998844079832 3786.8691103213487 L 684.2917788411938 3763.7365457713972 L 567.3958008172342 3720.5375244963625 M 512.343006384584 3720.5372542374043 L 516.1965130982576 3716.0124090477025 L 511.47602632249357 3720.537249981358 L 512.343006384584 3720.5372542374043 M 1005.8784175629435 3755.7687905445423 L 1105.7294634043308 3755.76876403771 L 1010.3558601297979 3708.661891139897 L 1005.8784175629435 3755.7687905445423 M 1005.8784175629435 3755.7687905445423 L 904.0547540289401 3797.425871205271 L 1003.8988823804032 3797.4245385986683 L 1105.7294634043308 3755.76876403771 L 1005.8784175629435 3755.7687905445423 M 1005.8784175629435 3755.7687905445423 L 1010.3558601297979 3708.661891139897 L 816.9039540197978 3725.8458334488596 L 1005.8784175629435 3755.7687905445423 M 1005.8784175629435 3755.7687905445423 L 816.9039540197978 3725.8458334488596 L 794.9218079375796 3760.2031142073874 L 1005.8784175629435 3755.7687905445423 M 1005.8784175629435 3755.7687905445423 L 794.9218079375796 3760.2031142073874 L 754.3639977798124 3768.7948312585468 L 904.0547540289401 3797.425871205271 L 1005.8784175629435 3755.7687905445423 M 1105.7294634043308 3755.76876403771 L 1091.475347710805 3725.848340502885 L 1010.3558601297979 3708.661891139897 L 1105.7294634043308 3755.76876403771 M 1105.7294634043308 3755.76876403771 L 1169.3444652429205 3760.202493471751 L 1091.475347710805 3725.848340502885 L 1105.7294634043308 3755.76876403771 M 1105.7294634043308 3755.76876403771 L 1003.8988823804032 3797.4245385986683 L 1153.7405348799095 3768.793091652314 L 1169.3444652429205 3760.202493471751 L 1105.7294634043308 3755.76876403771 M 1010.3558601297979 3708.661891139897 L 954.2500615987957 3707.952552645521 L 816.9039540197978 3725.8458334488596 L 1010.3558601297979 3708.661891139897 M 794.9218079375796 3760.2031142073874 L 816.9039540197978 3725.8458334488596 L 754.3639977798124 3768.7948312585468 L 794.9218079375796 3760.2031142073874 M 1056.1947662041096 3755.7687771875835 L 1055.4146799084738 3755.7687773946686 L 1064.5726120159602 3755.880034287836 L 1056.1947662041096 3755.7687771875835 M 1549.7109176748706 3790.942819428278 L 1631.6337112709653 3790.941208567326 L 1536.570747074176 3721.4291458895 L 1549.7109176748706 3790.942819428278 M 1549.7109176748706 3790.942819428278 L 1536.570747074176 3721.4291458895 L 1343.428297146027 3708.3547762383273 L 1549.7109176748706 3790.942819428278 M 1549.7109176748706 3790.942819428278 L 1343.428297146027 3708.3547762383273 L 1334.757805738288 3756.3091291968253 L 1549.7109176748706 3790.942819428278 M 1549.7109176748706 3790.942819428278 L 1334.757805738288 3756.3091291968253 L 1284.2711349995316 3749.7720261023665 L 1401.8700552362093 3777.3826778403213 L 1549.7109176748706 3790.942819428278 M 1631.6337112709653 3790.941208567326 L 1568.7151907969262 3708.3605036905165 L 1536.570747074176 3721.4291458895 L 1631.6337112709653 3790.941208567326 M 1631.6337112709653 3790.941208567326 L 1641.9674642722466 3756.308896782131 L 1568.7151907969262 3708.3605036905165 L 1631.6337112709653 3790.941208567326 M 1536.570747074176 3721.4291458895 L 1568.7151907969262 3708.3605036905165 L 1459.390317778969 3691.1013426212144 L 1536.570747074176 3721.4291458895 M 1536.570747074176 3721.4291458895 L 1459.390317778969 3691.1013426212144 L 1343.428297146027 3708.3547762383273 L 1536.570747074176 3721.4291458895 M 1334.757805738288 3756.3091291968253 L 1343.428297146027 3708.3547762383273 L 1284.2711349995316 3749.7720261023665 L 1334.757805738288 3756.3091291968253 M 1590.9932413310112 3790.9420077053765 L 1590.3532195060418 3790.942020290228 L 1602.7340343719065 3795.6816012294694 L 1590.9932413310112 3790.9420077053765 M 2080.602485065728 3823.661233432089 L 2139.0146782120164 3823.657449670265 L 2060.963844124234 3736.479068119403 L 2080.602485065728 3823.661233432089 M 2080.602485065728 3823.661233432089 L 2060.963844124234 3736.479068119403 L 1887.8468703015278 3694.0365794348627 L 2080.602485065728 3823.661233432089 M 2080.602485065728 3823.661233432089 L 1887.8468703015278 3694.0365794348627 L 1886.3579188692934 3752.3205091680634 L 2080.602485065728 3823.661233432089 M 2139.0146782120164 3823.657449670265 L 2048.494303391213 3694.0457962715136 L 2060.963844124234 3736.479068119403 L 2139.0146782120164 3823.657449670265 M 2139.0146782120164 3823.657449670265 L 2105.418889554786 3752.321046421511 L 2048.494303391213 3694.0457962715136 L 2139.0146782120164 3823.657449670265 M 2060.963844124234 3736.479068119403 L 2048.494303391213 3694.0457962715136 L 1975.9555925600166 3678.5991618719613 L 2060.963844124234 3736.479068119403 M 2060.963844124234 3736.479068119403 L 1975.9555925600166 3678.5991618719613 L 1887.8468703015278 3694.0365794348627 L 2060.963844124234 3736.479068119403 M 1886.3579188692934 3752.3205091680634 L 1887.8468703015278 3694.0365794348627 L 1832.6587154544354 3731.099102625915 L 1886.3579188692934 3752.3205091680634 M 2110.0375581600088 3823.6593267708577 L 2109.5812129010533 3823.6593563314964 L 2123.0927874097274 3832.703901501536 L 2110.0375581600088 3823.6593267708577 M 2595.261985136735 3851.694243952754 L 2626.184803373248 3851.688280970002 L 2579.636298474255 3752.785808827454 L 2595.261985136735 3851.694243952754 M 2595.261985136735 3851.694243952754 L 2579.636298474255 3752.785808827454 L 2447.353653430143 3683.8676093270155 L 2595.261985136735 3851.694243952754 M 2595.261985136735 3851.694243952754 L 2447.353653430143 3683.8676093270155 L 2447.3397884209476 3748.509141735728 L 2595.261985136735 3851.694243952754 M 2579.636298474255 3752.785808827454 L 2532.41027011901 3683.8796495577817 L 2502.1448996367853 3671.2984003903307 L 2579.636298474255 3752.785808827454 M 2579.636298474255 3752.785808827454 L 2502.1448996367853 3671.2984003903307 L 2447.353653430143 3683.8676093270155 L 2579.636298474255 3752.785808827454 M 2447.3397884209476 3748.509141735728 L 2447.353653430143 3683.8676093270155 L 2398.593032223463 3714.0489450461364 L 2447.3397884209476 3748.509141735728 M 2610.8446629492128 3851.691239168477 L 2610.6030784317404 3851.6912857542798 L 2622.832189786317 3864.4240985274987 L 2610.8446629492128 3851.691239168477 M 3095.145661200902 3873.132042556228 L 3096.4739638697306 3873.1244779533827 L 3090.2222908191097 3769.2379419294357 L 3095.145661200902 3873.132042556228 M 3095.145661200902 3873.132042556228 L 3090.2222908191097 3769.2379419294357 L 3016.1925253035665 3678.5414735987074 L 3095.145661200902 3873.132042556228 M 3095.145661200902 3873.132042556228 L 3016.1925253035665 3678.5414735987074 L 3014.2984170212844 3745.1348622553514 L 3095.145661200902 3873.132042556228 M 3095.145661200902 3873.132042556228 L 3014.2984170212844 3745.1348622553514 L 2978.028940027478 3699.7841229855294 L 2955.1484234788522 3713.9518529138304 L 3095.145661200902 3873.132042556228 M 3090.2222908191097 3769.2379419294357 L 3033.578171986991 3669.6969472477244 L 3016.1925253035665 3678.5414735987074 L 3090.2222908191097 3769.2379419294357 M 3014.2984170212844 3745.1348622553514 L 3016.1925253035665 3678.5414735987074 L 2978.028940027478 3699.7841229855294 L 3014.2984170212844 3745.1348622553514 M 3095.81502253658 3873.1282307055762 L 3095.8046451719792 3873.1282898040354 L 3104.6604818353767 3888.6815538412575 L 3095.81502253658 3873.1282307055762 M 526.8223260291577 4396.357328526331 L 435.712237038124 4206.365029926403 L 407.3619293669312 4206.368651105002 L 498.4667378440652 4396.349169056913 L 526.8223260291577 4396.357328526331 M 526.8223260291577 4396.357328526331 L 533.4661181546047 4294.557088157313 L 527.6283526274425 4188.264280930887 L 526.8223260291577 4396.357328526331 M 526.8223260291577 4396.357328526331 L 527.6283526274425 4188.264280930887 L 523.960088757683 4252.270514679522 L 526.8223260291577 4396.357328526331 M 526.8223260291577 4396.357328526331 L 523.960088757683 4252.270514679522 L 505.08810293948756 4199.120243828511 L 435.712237038124 4206.365029926403 L 526.8223260291577 4396.357328526331 M 498.4667378440652 4396.349169056913 L 407.3619293669312 4206.368651105002 L 391.6806496509204 4199.136523953545 L 417.63572961173725 4252.273419923188 L 498.4667378440652 4396.349169056913 M 523.960088757683 4252.270514679522 L 527.6283526274425 4188.264280930887 L 505.08810293948756 4199.120243828511 L 523.960088757683 4252.270514679522 M 449.6543114313878 4188.2773250340715 L 391.6806496509204 4199.136523953545 L 407.3619293669312 4206.368651105002 L 435.712237038124 4206.365029926403 L 505.08810293948756 4199.120243828511 L 527.6283526274425 4188.264280930887 L 505.4131482215561 4183.746847780665 L 449.6543114313878 4188.2773250340715 M 512.5333284101163 4396.353216918694 L 517.0273747145887 4413.667256427301 L 512.7548564428123 4396.353280664549 L 512.5333284101163 4396.353216918694 M 459.2695961358097 4191.892524620405 L 425.72003991427476 4200.940219118451 L 431.41316118387164 4202.74808596875 L 478.3837309392782 4190.080970018667 L 459.2695961358097 4191.892524620405 M 491.1671924805369 4191.887440875996 L 485.47218291073534 4190.079812244397 L 438.5009325580384 4202.747124567519 L 457.615448624855 4200.935766573095 L 491.1671924805369 4191.887440875996 M 416.295091626461 4198.228738386313 L 436.4240039403785 4192.80035832856 L 422.8160589971089 4195.5150812635675 L 416.295091626461 4198.228738386313 M 487.17523607273716 4198.21842304171 L 500.78582215305374 4195.503271505198 L 507.30706523218396 4192.78920138522 L 487.17523607273716 4198.21842304171 M 1016.4913236125757 4400.773080382871 L 980.1734257608266 4192.915646779284 L 924.067186614946 4192.91965545865 L 960.3836980461383 4400.765492194185 L 1016.4913236125757 4400.773080382871 M 1016.4913236125757 4400.773080382871 L 1089.7836501645854 4250.4150648990135 L 1089.307961818955 4193.088203048027 L 980.1734257608266 4192.915646779284 L 1016.4913236125757 4400.773080382871 M 960.3836980461383 4400.765492194185 L 924.067186614946 4192.91965545865 L 864.8791935920715 4193.104198043235 L 879.3806076860812 4250.418067219082 L 960.3836980461383 4400.765492194185 M 1089.7836501645854 4250.4150648990135 L 1091.6778934396248 4193.3585416563155 L 1089.307961818955 4193.088203048027 L 1089.7836501645854 4250.4150648990135 M 988.2175578442918 4400.769256647166 L 988.3397499872974 4418.664449368305 L 988.6558986690295 4400.76931592989 L 988.2175578442918 4400.769256647166 M 1513.2737366500774 4395.921091548753 L 1522.9712663900932 4184.363397914593 L 1442.9332921564371 4184.36707849842 L 1433.2357826061734 4395.915087713782 L 1513.2737366500774 4395.921091548753 M 1513.2737366500774 4395.921091548753 L 1648.1095020304053 4249.537769768992 L 1662.791640630871 4191.9419147664385 L 1522.9712663900932 4184.363397914593 L 1513.2737366500774 4395.921091548753 M 1433.2357826061734 4395.915087713782 L 1442.9332921564371 4184.36707849842 L 1342.6395792229523 4191.955248646587 L 1347.9669809651919 4249.540383768232 L 1433.2357826061734 4395.915087713782 M 1472.941195424536 4395.918066178788 L 1469.8639589038594 4413.175207321492 L 1473.5664919405044 4395.918113083748 L 1472.941195424536 4395.918066178788 M 2023.0598670829781 4382.131360574884 L 2057.665620936162 4181.291138643138 L 1959.1516809223585 4181.293863447303 L 1924.5438440084752 4382.12752964125 L 2023.0598670829781 4382.131360574884 M 2023.0598670829781 4382.131360574884 L 2194.9114894228796 4249.6983746733085 L 2218.0486894068863 4195.759085560239 L 2057.665620936162 4181.291138643138 L 2023.0598670829781 4382.131360574884 M 1924.5438440084752 4382.12752964125 L 1959.1516809223585 4181.293863447303 L 1823.995963564978 4195.768095381421 L 1825.4846159198858 4249.700219004252 L 1924.5438440084752 4382.12752964125 M 1973.4162234389719 4382.129430143483 L 1969.1879448328827 4397.572570103551 L 1974.1858798692415 4382.129460072651 L 1973.4162234389719 4382.129430143483 M 2547.711148272327 4360.342837049208 L 2579.4433165848254 4183.907918267137 L 2469.168200341143 4183.909315708806 L 2437.4296078951247 4360.341185336035 L 2547.711148272327 4360.342837049208 M 2547.711148272327 4360.342837049208 L 2727.208036143525 4250.885846980637 L 2750.2940250224665 4204.27886476605 L 2579.4433165848254 4183.907918267137 L 2547.711148272327 4360.342837049208 M 2437.4296078951247 4360.341185336035 L 2469.168200341143 4183.909315708806 L 2309.1979596118736 4204.283046215535 L 2313.6734113730686 4250.886746528437 L 2437.4296078951247 4360.341185336035 M 2492.139114381024 4360.342004740617 L 2489.1312456483206 4372.918532145056 L 2493.0006889152205 4360.342017644627 L 2492.139114381024 4360.342004740617 M 3084.4350316132195 4332.039968038897 L 3086.282064561639 4192.034894435025 L 2971.7612387954587 4192.034948596066 L 2969.9040214013603 4332.039917946225 L 3084.4350316132195 4332.039968038897 M 3084.4350316132195 4332.039968038897 L 3243.389408276378 4253.019155344963 L 3258.2265804515655 4216.9199055077725 L 3086.282064561639 4192.034894435025 L 3084.4350316132195 4332.039968038897 M 2969.9040214013603 4332.039917946225 L 2971.7612387954587 4192.034948596066 L 2800.1469018727685 4216.920048027999 L 2813.9288297858307 4253.019188147985 L 2969.9040214013603 4332.039917946225 M 3026.7221184297664 4332.039942796886 L 3026.988513068041 4340.892428274182 L 3027.6168919470465 4332.039943188236 L 3026.7221184297664 4332.039942796886 "  fill="none" stroke="black" stroke-width="1"/>
      </g></svg>